<mxfile host="app.diagrams.net" modified="2021-10-09T04:50:51.673Z" agent="5.0 (Windows NT 10.0; Win64; x64) AppleWebKit/537.36 (KHTML, like Gecko) Chrome/92.0.4515.159 Safari/537.36" etag="4Les6ebkxaoOptmwNKD1" version="15.3.5" type="github" pages="5">
  <diagram name="Page-1" id="c37626ed-c26b-45fb-9056-f9ebc6bb27b6">
    <mxGraphModel dx="868" dy="450" grid="1" gridSize="10" guides="1" tooltips="1" connect="1" arrows="1" fold="1" page="1" pageScale="1" pageWidth="1100" pageHeight="850" background="none" math="0" shadow="0">
      <root>
        <mxCell id="0" />
        <mxCell id="1" parent="0" />
        <mxCell id="1c7a67bf8fd3230f-83" value="Group 1" style="whiteSpace=wrap;html=1;rounded=0;shadow=0;comic=0;strokeWidth=1;fontFamily=Verdana;fontSize=14;fillColor=#f5f5f5;strokeColor=none;verticalAlign=top;fontStyle=1" parent="1" vertex="1">
          <mxGeometry x="460" y="246" width="1240" height="440" as="geometry" />
        </mxCell>
        <mxCell id="1c7a67bf8fd3230f-82" value="Group 4" style="whiteSpace=wrap;html=1;rounded=0;shadow=0;comic=0;strokeWidth=1;fontFamily=Verdana;fontSize=14;fillColor=#f5f5f5;strokeColor=none;fontStyle=1;verticalAlign=top;" parent="1" vertex="1">
          <mxGeometry x="1370" y="839" width="370" height="587" as="geometry" />
        </mxCell>
        <mxCell id="1c7a67bf8fd3230f-81" value="Group 3" style="whiteSpace=wrap;html=1;rounded=0;shadow=0;comic=0;strokeWidth=1;fontFamily=Verdana;fontSize=14;fillColor=#f5f5f5;strokeColor=none;fontStyle=1;verticalAlign=top;" parent="1" vertex="1">
          <mxGeometry x="910" y="838.9999999999999" width="432" height="587" as="geometry" />
        </mxCell>
        <mxCell id="1c7a67bf8fd3230f-80" value="Group 2" style="whiteSpace=wrap;html=1;rounded=0;shadow=0;comic=0;strokeWidth=1;fontFamily=Verdana;fontSize=14;fillColor=#f5f5f5;strokeColor=none;fontStyle=1;verticalAlign=top;" parent="1" vertex="1">
          <mxGeometry x="506" y="839" width="384" height="587" as="geometry" />
        </mxCell>
        <mxCell id="1c7a67bf8fd3230f-37" style="edgeStyle=none;html=1;labelBackgroundColor=none;startFill=0;endArrow=none;endFill=0;strokeWidth=2;fontFamily=Verdana;fontSize=12;" parent="1" source="1c7a67bf8fd3230f-1" target="1c7a67bf8fd3230f-5" edge="1">
          <mxGeometry relative="1" as="geometry" />
        </mxCell>
        <mxCell id="1c7a67bf8fd3230f-1" value="Route&lt;div&gt;Switch&lt;/div&gt;&lt;div&gt;Processor&lt;/div&gt;" style="shape=mxgraph.cisco.misc.route_switch_processor;html=1;dashed=0;fillColor=#036897;strokeColor=#ffffff;strokeWidth=2;verticalLabelPosition=bottom;verticalAlign=top;rounded=0;shadow=0;comic=0;fontFamily=Verdana;fontSize=12;" parent="1" vertex="1">
          <mxGeometry x="710" y="306" width="64" height="86" as="geometry" />
        </mxCell>
        <mxCell id="1c7a67bf8fd3230f-38" style="edgeStyle=none;html=1;labelBackgroundColor=none;startFill=0;endArrow=none;endFill=0;strokeWidth=2;fontFamily=Verdana;fontSize=12;" parent="1" source="1c7a67bf8fd3230f-2" target="1c7a67bf8fd3230f-5" edge="1">
          <mxGeometry relative="1" as="geometry" />
        </mxCell>
        <mxCell id="1c7a67bf8fd3230f-2" value="Route&lt;div&gt;Switch&lt;/div&gt;&lt;div&gt;Processor&lt;/div&gt;" style="shape=mxgraph.cisco.misc.route_switch_processor;html=1;dashed=0;fillColor=#036897;strokeColor=#ffffff;strokeWidth=2;verticalLabelPosition=bottom;verticalAlign=top;rounded=0;shadow=0;comic=0;fontFamily=Verdana;fontSize=12;" parent="1" vertex="1">
          <mxGeometry x="908" y="306" width="64" height="86" as="geometry" />
        </mxCell>
        <mxCell id="1c7a67bf8fd3230f-39" style="edgeStyle=none;html=1;labelBackgroundColor=none;startFill=0;endArrow=none;endFill=0;strokeWidth=2;fontFamily=Verdana;fontSize=12;" parent="1" source="1c7a67bf8fd3230f-3" target="1c7a67bf8fd3230f-5" edge="1">
          <mxGeometry relative="1" as="geometry" />
        </mxCell>
        <mxCell id="1c7a67bf8fd3230f-3" value="Route&lt;div&gt;Switch&lt;/div&gt;&lt;div&gt;Processor&lt;/div&gt;" style="shape=mxgraph.cisco.misc.route_switch_processor;html=1;dashed=0;fillColor=#036897;strokeColor=#ffffff;strokeWidth=2;verticalLabelPosition=bottom;verticalAlign=top;rounded=0;shadow=0;comic=0;fontFamily=Verdana;fontSize=12;" parent="1" vertex="1">
          <mxGeometry x="1110" y="306" width="64" height="86" as="geometry" />
        </mxCell>
        <mxCell id="1c7a67bf8fd3230f-40" style="edgeStyle=none;html=1;labelBackgroundColor=none;startFill=0;endArrow=none;endFill=0;strokeWidth=2;fontFamily=Verdana;fontSize=12;" parent="1" source="1c7a67bf8fd3230f-4" target="1c7a67bf8fd3230f-5" edge="1">
          <mxGeometry relative="1" as="geometry" />
        </mxCell>
        <mxCell id="1c7a67bf8fd3230f-4" value="Route&lt;div&gt;Switch&lt;/div&gt;&lt;div&gt;Processor&lt;/div&gt;" style="shape=mxgraph.cisco.misc.route_switch_processor;html=1;dashed=0;fillColor=#036897;strokeColor=#ffffff;strokeWidth=2;verticalLabelPosition=bottom;verticalAlign=top;rounded=0;shadow=0;comic=0;fontFamily=Verdana;fontSize=12;" parent="1" vertex="1">
          <mxGeometry x="1340" y="306" width="64" height="86" as="geometry" />
        </mxCell>
        <mxCell id="1c7a67bf8fd3230f-41" style="edgeStyle=none;html=1;labelBackgroundColor=none;startFill=0;endArrow=none;endFill=0;strokeWidth=2;fontFamily=Verdana;fontSize=12;" parent="1" source="1c7a67bf8fd3230f-5" target="1c7a67bf8fd3230f-7" edge="1">
          <mxGeometry relative="1" as="geometry" />
        </mxCell>
        <mxCell id="1c7a67bf8fd3230f-45" style="edgeStyle=none;html=1;labelBackgroundColor=none;startFill=0;endArrow=none;endFill=0;strokeWidth=2;fontFamily=Verdana;fontSize=12;" parent="1" source="1c7a67bf8fd3230f-5" target="1c7a67bf8fd3230f-6" edge="1">
          <mxGeometry relative="1" as="geometry" />
        </mxCell>
        <mxCell id="1c7a67bf8fd3230f-49" style="edgeStyle=none;html=1;labelBackgroundColor=none;startFill=0;endArrow=none;endFill=0;strokeWidth=2;fontFamily=Verdana;fontSize=12;" parent="1" source="1c7a67bf8fd3230f-5" target="1c7a67bf8fd3230f-46" edge="1">
          <mxGeometry relative="1" as="geometry" />
        </mxCell>
        <mxCell id="1c7a67bf8fd3230f-50" style="edgeStyle=none;html=1;labelBackgroundColor=none;startFill=0;endArrow=none;endFill=0;strokeWidth=2;fontFamily=Verdana;fontSize=12;" parent="1" source="1c7a67bf8fd3230f-5" target="1c7a67bf8fd3230f-47" edge="1">
          <mxGeometry relative="1" as="geometry" />
        </mxCell>
        <mxCell id="1c7a67bf8fd3230f-5" value="Route&lt;div&gt;Switch&lt;/div&gt;&lt;div&gt;Processor&lt;/div&gt;" style="shape=mxgraph.cisco.misc.route_switch_processor;html=1;dashed=0;fillColor=#036897;strokeColor=#ffffff;strokeWidth=2;verticalLabelPosition=bottom;verticalAlign=top;rounded=0;shadow=0;comic=0;fontFamily=Verdana;fontSize=12;" parent="1" vertex="1">
          <mxGeometry x="1020" y="476" width="64" height="86" as="geometry" />
        </mxCell>
        <mxCell id="1c7a67bf8fd3230f-64" style="edgeStyle=none;html=1;labelBackgroundColor=none;startFill=0;endArrow=none;endFill=0;strokeWidth=2;fontFamily=Verdana;fontSize=12;" parent="1" source="1c7a67bf8fd3230f-6" target="1c7a67bf8fd3230f-9" edge="1">
          <mxGeometry relative="1" as="geometry" />
        </mxCell>
        <mxCell id="1c7a67bf8fd3230f-65" style="edgeStyle=none;html=1;labelBackgroundColor=none;startFill=0;endArrow=none;endFill=0;strokeWidth=2;fontFamily=Verdana;fontSize=12;" parent="1" source="1c7a67bf8fd3230f-6" target="1c7a67bf8fd3230f-8" edge="1">
          <mxGeometry relative="1" as="geometry" />
        </mxCell>
        <mxCell id="1c7a67bf8fd3230f-6" value="" style="shape=mxgraph.cisco.switches.content_switch;html=1;dashed=0;fillColor=#036897;strokeColor=#ffffff;strokeWidth=2;verticalLabelPosition=bottom;verticalAlign=top;rounded=0;shadow=0;comic=0;fontFamily=Verdana;fontSize=12;" parent="1" vertex="1">
          <mxGeometry x="710" y="476" width="64" height="86" as="geometry" />
        </mxCell>
        <mxCell id="1c7a67bf8fd3230f-42" style="edgeStyle=none;html=1;labelBackgroundColor=none;startFill=0;endArrow=none;endFill=0;strokeWidth=2;fontFamily=Verdana;fontSize=12;" parent="1" source="1c7a67bf8fd3230f-7" target="1c7a67bf8fd3230f-10" edge="1">
          <mxGeometry relative="1" as="geometry" />
        </mxCell>
        <mxCell id="1c7a67bf8fd3230f-7" value="" style="shape=mxgraph.cisco.switches.content_switch;html=1;dashed=0;fillColor=#036897;strokeColor=#ffffff;strokeWidth=2;verticalLabelPosition=bottom;verticalAlign=top;rounded=0;shadow=0;comic=0;fontFamily=Verdana;fontSize=12;" parent="1" vertex="1">
          <mxGeometry x="1240" y="476" width="64" height="86" as="geometry" />
        </mxCell>
        <mxCell id="1c7a67bf8fd3230f-8" value="" style="shape=mxgraph.cisco.storage.cisco_file_engine;html=1;dashed=0;fillColor=#036897;strokeColor=#ffffff;strokeWidth=2;verticalLabelPosition=bottom;verticalAlign=top;rounded=0;shadow=0;comic=0;fontFamily=Verdana;fontSize=12;" parent="1" vertex="1">
          <mxGeometry x="500" y="572" width="90" height="64" as="geometry" />
        </mxCell>
        <mxCell id="1c7a67bf8fd3230f-9" value="" style="shape=mxgraph.cisco.misc.me1100;html=1;dashed=0;fillColor=#036897;strokeColor=#ffffff;strokeWidth=2;verticalLabelPosition=bottom;verticalAlign=top;rounded=0;shadow=0;comic=0;fontFamily=Verdana;fontSize=12;" parent="1" vertex="1">
          <mxGeometry x="500" y="471" width="91" height="48" as="geometry" />
        </mxCell>
        <mxCell id="1c7a67bf8fd3230f-43" style="edgeStyle=none;html=1;labelBackgroundColor=none;startFill=0;endArrow=none;endFill=0;strokeWidth=2;fontFamily=Verdana;fontSize=12;" parent="1" source="1c7a67bf8fd3230f-10" target="1c7a67bf8fd3230f-11" edge="1">
          <mxGeometry relative="1" as="geometry" />
        </mxCell>
        <mxCell id="1c7a67bf8fd3230f-44" style="edgeStyle=none;html=1;labelBackgroundColor=none;startFill=0;endArrow=none;endFill=0;strokeWidth=2;fontFamily=Verdana;fontSize=12;" parent="1" source="1c7a67bf8fd3230f-10" target="1c7a67bf8fd3230f-12" edge="1">
          <mxGeometry relative="1" as="geometry" />
        </mxCell>
        <mxCell id="1c7a67bf8fd3230f-51" style="edgeStyle=none;html=1;labelBackgroundColor=none;startFill=0;endArrow=none;endFill=0;strokeWidth=2;fontFamily=Verdana;fontSize=12;" parent="1" source="1c7a67bf8fd3230f-10" target="1c7a67bf8fd3230f-48" edge="1">
          <mxGeometry relative="1" as="geometry" />
        </mxCell>
        <mxCell id="1c7a67bf8fd3230f-10" value="" style="shape=mxgraph.cisco.security.ios_firewall;html=1;dashed=0;fillColor=#036897;strokeColor=#ffffff;strokeWidth=2;verticalLabelPosition=bottom;verticalAlign=top;rounded=0;shadow=0;comic=0;fontFamily=Verdana;fontSize=12;" parent="1" vertex="1">
          <mxGeometry x="1372" y="486" width="40" height="66" as="geometry" />
        </mxCell>
        <mxCell id="1c7a67bf8fd3230f-11" value="" style="shape=mxgraph.cisco.servers.server_with_router;html=1;dashed=0;fillColor=#036897;strokeColor=#ffffff;strokeWidth=2;verticalLabelPosition=bottom;verticalAlign=top;rounded=0;shadow=0;comic=0;fontFamily=Verdana;fontSize=12;" parent="1" vertex="1">
          <mxGeometry x="1460" y="431" width="38" height="64" as="geometry" />
        </mxCell>
        <mxCell id="1c7a67bf8fd3230f-12" value="" style="shape=mxgraph.cisco.servers.server_with_router;html=1;dashed=0;fillColor=#036897;strokeColor=#ffffff;strokeWidth=2;verticalLabelPosition=bottom;verticalAlign=top;rounded=0;shadow=0;comic=0;fontFamily=Verdana;fontSize=12;" parent="1" vertex="1">
          <mxGeometry x="1511" y="530" width="38" height="64" as="geometry" />
        </mxCell>
        <mxCell id="1c7a67bf8fd3230f-56" style="edgeStyle=none;html=1;labelBackgroundColor=none;startFill=0;endArrow=none;endFill=0;strokeWidth=2;fontFamily=Verdana;fontSize=12;" parent="1" source="1c7a67bf8fd3230f-13" target="1c7a67bf8fd3230f-16" edge="1">
          <mxGeometry relative="1" as="geometry" />
        </mxCell>
        <mxCell id="1c7a67bf8fd3230f-61" style="edgeStyle=none;html=1;labelBackgroundColor=none;startFill=0;endArrow=none;endFill=0;strokeWidth=2;fontFamily=Verdana;fontSize=12;" parent="1" source="1c7a67bf8fd3230f-13" target="1c7a67bf8fd3230f-17" edge="1">
          <mxGeometry relative="1" as="geometry" />
        </mxCell>
        <mxCell id="1c7a67bf8fd3230f-62" style="edgeStyle=none;html=1;labelBackgroundColor=none;startFill=0;endArrow=none;endFill=0;strokeWidth=2;fontFamily=Verdana;fontSize=12;" parent="1" source="1c7a67bf8fd3230f-13" target="1c7a67bf8fd3230f-18" edge="1">
          <mxGeometry relative="1" as="geometry" />
        </mxCell>
        <mxCell id="1c7a67bf8fd3230f-13" value="LAN" style="ellipse;shape=cloud;whiteSpace=wrap;html=1;rounded=0;shadow=0;comic=0;strokeWidth=1;fontFamily=Verdana;fontSize=12;" parent="1" vertex="1">
          <mxGeometry x="830" y="696" width="120" height="80" as="geometry" />
        </mxCell>
        <mxCell id="1c7a67bf8fd3230f-57" style="edgeStyle=none;html=1;labelBackgroundColor=none;startFill=0;endArrow=none;endFill=0;strokeWidth=2;fontFamily=Verdana;fontSize=12;" parent="1" source="1c7a67bf8fd3230f-14" target="1c7a67bf8fd3230f-17" edge="1">
          <mxGeometry relative="1" as="geometry" />
        </mxCell>
        <mxCell id="1c7a67bf8fd3230f-63" style="edgeStyle=none;html=1;labelBackgroundColor=none;startFill=0;endArrow=none;endFill=0;strokeWidth=2;fontFamily=Verdana;fontSize=12;" parent="1" source="1c7a67bf8fd3230f-14" target="1c7a67bf8fd3230f-18" edge="1">
          <mxGeometry relative="1" as="geometry" />
        </mxCell>
        <mxCell id="1c7a67bf8fd3230f-14" value="Cloud" style="ellipse;shape=cloud;whiteSpace=wrap;html=1;rounded=0;shadow=0;comic=0;strokeWidth=1;fontFamily=Verdana;fontSize=12;" parent="1" vertex="1">
          <mxGeometry x="1114" y="696" width="120" height="80" as="geometry" />
        </mxCell>
        <mxCell id="1c7a67bf8fd3230f-15" value="Internet" style="ellipse;shape=cloud;whiteSpace=wrap;html=1;rounded=0;shadow=0;comic=0;strokeWidth=1;fontFamily=Verdana;fontSize=12;" parent="1" vertex="1">
          <mxGeometry x="1554" y="696" width="120" height="80" as="geometry" />
        </mxCell>
        <mxCell id="1c7a67bf8fd3230f-66" style="edgeStyle=none;html=1;labelBackgroundColor=none;startFill=0;endArrow=none;endFill=0;strokeWidth=2;fontFamily=Verdana;fontSize=12;" parent="1" source="1c7a67bf8fd3230f-16" target="1c7a67bf8fd3230f-21" edge="1">
          <mxGeometry relative="1" as="geometry" />
        </mxCell>
        <mxCell id="1c7a67bf8fd3230f-16" value="" style="shape=mxgraph.cisco.misc.route_switch_processor;html=1;dashed=0;fillColor=#036897;strokeColor=#ffffff;strokeWidth=2;verticalLabelPosition=bottom;verticalAlign=top;rounded=0;shadow=0;comic=0;fontFamily=Verdana;fontSize=12;" parent="1" vertex="1">
          <mxGeometry x="810" y="856" width="64" height="86" as="geometry" />
        </mxCell>
        <mxCell id="1c7a67bf8fd3230f-60" style="edgeStyle=none;html=1;labelBackgroundColor=none;startFill=0;endArrow=none;endFill=0;strokeWidth=2;fontFamily=Verdana;fontSize=12;" parent="1" source="1c7a67bf8fd3230f-17" target="1c7a67bf8fd3230f-24" edge="1">
          <mxGeometry relative="1" as="geometry" />
        </mxCell>
        <mxCell id="1c7a67bf8fd3230f-69" style="edgeStyle=none;html=1;labelBackgroundColor=none;startFill=0;endArrow=none;endFill=0;strokeWidth=2;fontFamily=Verdana;fontSize=12;" parent="1" source="1c7a67bf8fd3230f-17" target="1c7a67bf8fd3230f-22" edge="1">
          <mxGeometry relative="1" as="geometry" />
        </mxCell>
        <mxCell id="1c7a67bf8fd3230f-70" style="edgeStyle=none;html=1;labelBackgroundColor=none;startFill=0;endArrow=none;endFill=0;strokeWidth=2;fontFamily=Verdana;fontSize=12;" parent="1" source="1c7a67bf8fd3230f-17" target="1c7a67bf8fd3230f-23" edge="1">
          <mxGeometry relative="1" as="geometry" />
        </mxCell>
        <mxCell id="1c7a67bf8fd3230f-17" value="" style="shape=mxgraph.cisco.misc.route_switch_processor;html=1;dashed=0;fillColor=#036897;strokeColor=#ffffff;strokeWidth=2;verticalLabelPosition=bottom;verticalAlign=top;rounded=0;shadow=0;comic=0;fontFamily=Verdana;fontSize=12;" parent="1" vertex="1">
          <mxGeometry x="1150" y="856" width="64" height="86" as="geometry" />
        </mxCell>
        <mxCell id="1c7a67bf8fd3230f-59" style="edgeStyle=none;html=1;labelBackgroundColor=none;startFill=0;endArrow=none;endFill=0;strokeWidth=2;fontFamily=Verdana;fontSize=12;" parent="1" source="1c7a67bf8fd3230f-18" target="1c7a67bf8fd3230f-27" edge="1">
          <mxGeometry relative="1" as="geometry" />
        </mxCell>
        <mxCell id="1c7a67bf8fd3230f-18" value="" style="shape=mxgraph.cisco.misc.route_switch_processor;html=1;dashed=0;fillColor=#036897;strokeColor=#ffffff;strokeWidth=2;verticalLabelPosition=bottom;verticalAlign=top;rounded=0;shadow=0;comic=0;fontFamily=Verdana;fontSize=12;" parent="1" vertex="1">
          <mxGeometry x="1438" y="856" width="64" height="86" as="geometry" />
        </mxCell>
        <mxCell id="1c7a67bf8fd3230f-19" value="" style="shape=mxgraph.cisco.misc.me1100;html=1;dashed=0;fillColor=#036897;strokeColor=#ffffff;strokeWidth=2;verticalLabelPosition=bottom;verticalAlign=top;rounded=0;shadow=0;comic=0;fontFamily=Verdana;fontSize=12;" parent="1" vertex="1">
          <mxGeometry x="520" y="1016" width="91" height="48" as="geometry" />
        </mxCell>
        <mxCell id="1c7a67bf8fd3230f-20" value="" style="shape=mxgraph.cisco.storage.cisco_file_engine;html=1;dashed=0;fillColor=#036897;strokeColor=#ffffff;strokeWidth=2;verticalLabelPosition=bottom;verticalAlign=top;rounded=0;shadow=0;comic=0;fontFamily=Verdana;fontSize=12;" parent="1" vertex="1">
          <mxGeometry x="521" y="1116" width="90" height="64" as="geometry" />
        </mxCell>
        <mxCell id="1c7a67bf8fd3230f-67" style="edgeStyle=none;html=1;labelBackgroundColor=none;startFill=0;endArrow=none;endFill=0;strokeWidth=2;fontFamily=Verdana;fontSize=12;" parent="1" source="1c7a67bf8fd3230f-21" target="1c7a67bf8fd3230f-19" edge="1">
          <mxGeometry relative="1" as="geometry" />
        </mxCell>
        <mxCell id="1c7a67bf8fd3230f-68" style="edgeStyle=none;html=1;labelBackgroundColor=none;startFill=0;endArrow=none;endFill=0;strokeWidth=2;fontFamily=Verdana;fontSize=12;" parent="1" source="1c7a67bf8fd3230f-21" target="1c7a67bf8fd3230f-20" edge="1">
          <mxGeometry relative="1" as="geometry" />
        </mxCell>
        <mxCell id="1c7a67bf8fd3230f-78" style="edgeStyle=none;html=1;labelBackgroundColor=none;startFill=0;endArrow=none;endFill=0;strokeWidth=2;fontFamily=Verdana;fontSize=12;" parent="1" source="1c7a67bf8fd3230f-21" target="1c7a67bf8fd3230f-29" edge="1">
          <mxGeometry relative="1" as="geometry" />
        </mxCell>
        <mxCell id="1c7a67bf8fd3230f-79" style="edgeStyle=none;html=1;labelBackgroundColor=none;startFill=0;endArrow=none;endFill=0;strokeWidth=2;fontFamily=Verdana;fontSize=12;" parent="1" source="1c7a67bf8fd3230f-21" target="1c7a67bf8fd3230f-28" edge="1">
          <mxGeometry relative="1" as="geometry" />
        </mxCell>
        <mxCell id="1c7a67bf8fd3230f-21" value="" style="shape=mxgraph.cisco.misc.route_switch_processor;html=1;dashed=0;fillColor=#036897;strokeColor=#ffffff;strokeWidth=2;verticalLabelPosition=bottom;verticalAlign=top;rounded=0;shadow=0;comic=0;fontFamily=Verdana;fontSize=12;" parent="1" vertex="1">
          <mxGeometry x="764" y="997" width="64" height="86" as="geometry" />
        </mxCell>
        <mxCell id="1c7a67bf8fd3230f-22" value="" style="shape=mxgraph.cisco.misc.me1100;html=1;dashed=0;fillColor=#036897;strokeColor=#ffffff;strokeWidth=2;verticalLabelPosition=bottom;verticalAlign=top;rounded=0;shadow=0;comic=0;fontFamily=Verdana;fontSize=12;" parent="1" vertex="1">
          <mxGeometry x="930" y="1026" width="91" height="48" as="geometry" />
        </mxCell>
        <mxCell id="1c7a67bf8fd3230f-23" value="" style="shape=mxgraph.cisco.storage.cisco_file_engine;html=1;dashed=0;fillColor=#036897;strokeColor=#ffffff;strokeWidth=2;verticalLabelPosition=bottom;verticalAlign=top;rounded=0;shadow=0;comic=0;fontFamily=Verdana;fontSize=12;" parent="1" vertex="1">
          <mxGeometry x="931" y="1126" width="90" height="64" as="geometry" />
        </mxCell>
        <mxCell id="1c7a67bf8fd3230f-75" style="edgeStyle=none;html=1;labelBackgroundColor=none;startFill=0;endArrow=none;endFill=0;strokeWidth=2;fontFamily=Verdana;fontSize=12;" parent="1" source="1c7a67bf8fd3230f-24" target="1c7a67bf8fd3230f-33" edge="1">
          <mxGeometry relative="1" as="geometry" />
        </mxCell>
        <mxCell id="1c7a67bf8fd3230f-76" style="edgeStyle=none;html=1;labelBackgroundColor=none;startFill=0;endArrow=none;endFill=0;strokeWidth=2;fontFamily=Verdana;fontSize=12;" parent="1" source="1c7a67bf8fd3230f-24" target="1c7a67bf8fd3230f-32" edge="1">
          <mxGeometry relative="1" as="geometry" />
        </mxCell>
        <mxCell id="1c7a67bf8fd3230f-77" style="edgeStyle=none;html=1;labelBackgroundColor=none;startFill=0;endArrow=none;endFill=0;strokeWidth=2;fontFamily=Verdana;fontSize=12;" parent="1" source="1c7a67bf8fd3230f-24" target="1c7a67bf8fd3230f-31" edge="1">
          <mxGeometry relative="1" as="geometry" />
        </mxCell>
        <mxCell id="1c7a67bf8fd3230f-24" value="" style="shape=mxgraph.cisco.misc.route_switch_processor;html=1;dashed=0;fillColor=#036897;strokeColor=#ffffff;strokeWidth=2;verticalLabelPosition=bottom;verticalAlign=top;rounded=0;shadow=0;comic=0;fontFamily=Verdana;fontSize=12;" parent="1" vertex="1">
          <mxGeometry x="1174" y="1007" width="64" height="86" as="geometry" />
        </mxCell>
        <mxCell id="1c7a67bf8fd3230f-25" value="" style="shape=mxgraph.cisco.misc.me1100;html=1;dashed=0;fillColor=#036897;strokeColor=#ffffff;strokeWidth=2;verticalLabelPosition=bottom;verticalAlign=top;rounded=0;shadow=0;comic=0;fontFamily=Verdana;fontSize=12;" parent="1" vertex="1">
          <mxGeometry x="1392" y="1026" width="91" height="48" as="geometry" />
        </mxCell>
        <mxCell id="1c7a67bf8fd3230f-26" value="" style="shape=mxgraph.cisco.storage.cisco_file_engine;html=1;dashed=0;fillColor=#036897;strokeColor=#ffffff;strokeWidth=2;verticalLabelPosition=bottom;verticalAlign=top;rounded=0;shadow=0;comic=0;fontFamily=Verdana;fontSize=12;" parent="1" vertex="1">
          <mxGeometry x="1380" y="1136" width="90" height="64" as="geometry" />
        </mxCell>
        <mxCell id="1c7a67bf8fd3230f-71" style="edgeStyle=none;html=1;labelBackgroundColor=none;startFill=0;endArrow=none;endFill=0;strokeWidth=2;fontFamily=Verdana;fontSize=12;" parent="1" source="1c7a67bf8fd3230f-27" target="1c7a67bf8fd3230f-25" edge="1">
          <mxGeometry relative="1" as="geometry" />
        </mxCell>
        <mxCell id="1c7a67bf8fd3230f-72" style="edgeStyle=none;html=1;labelBackgroundColor=none;startFill=0;endArrow=none;endFill=0;strokeWidth=2;fontFamily=Verdana;fontSize=12;" parent="1" source="1c7a67bf8fd3230f-27" target="1c7a67bf8fd3230f-26" edge="1">
          <mxGeometry relative="1" as="geometry" />
        </mxCell>
        <mxCell id="1c7a67bf8fd3230f-73" style="edgeStyle=none;html=1;labelBackgroundColor=none;startFill=0;endArrow=none;endFill=0;strokeWidth=2;fontFamily=Verdana;fontSize=12;" parent="1" source="1c7a67bf8fd3230f-27" target="1c7a67bf8fd3230f-35" edge="1">
          <mxGeometry relative="1" as="geometry" />
        </mxCell>
        <mxCell id="1c7a67bf8fd3230f-74" style="edgeStyle=none;html=1;labelBackgroundColor=none;startFill=0;endArrow=none;endFill=0;strokeWidth=2;fontFamily=Verdana;fontSize=12;" parent="1" source="1c7a67bf8fd3230f-27" target="1c7a67bf8fd3230f-34" edge="1">
          <mxGeometry relative="1" as="geometry" />
        </mxCell>
        <mxCell id="1c7a67bf8fd3230f-27" value="" style="shape=mxgraph.cisco.misc.route_switch_processor;html=1;dashed=0;fillColor=#036897;strokeColor=#ffffff;strokeWidth=2;verticalLabelPosition=bottom;verticalAlign=top;rounded=0;shadow=0;comic=0;fontFamily=Verdana;fontSize=12;" parent="1" vertex="1">
          <mxGeometry x="1560" y="1007" width="64" height="86" as="geometry" />
        </mxCell>
        <mxCell id="1c7a67bf8fd3230f-28" value="" style="shape=mxgraph.cisco.misc.route_switch_processor;html=1;dashed=0;fillColor=#036897;strokeColor=#ffffff;strokeWidth=2;verticalLabelPosition=bottom;verticalAlign=top;rounded=0;shadow=0;comic=0;fontFamily=Verdana;fontSize=12;" parent="1" vertex="1">
          <mxGeometry x="678" y="1316" width="64" height="86" as="geometry" />
        </mxCell>
        <mxCell id="1c7a67bf8fd3230f-29" value="" style="shape=mxgraph.cisco.misc.route_switch_processor;html=1;dashed=0;fillColor=#036897;strokeColor=#ffffff;strokeWidth=2;verticalLabelPosition=bottom;verticalAlign=top;rounded=0;shadow=0;comic=0;fontFamily=Verdana;fontSize=12;" parent="1" vertex="1">
          <mxGeometry x="778" y="1316" width="64" height="86" as="geometry" />
        </mxCell>
        <mxCell id="1c7a67bf8fd3230f-31" value="" style="shape=mxgraph.cisco.misc.route_switch_processor;html=1;dashed=0;fillColor=#036897;strokeColor=#ffffff;strokeWidth=2;verticalLabelPosition=bottom;verticalAlign=top;rounded=0;shadow=0;comic=0;fontFamily=Verdana;fontSize=12;" parent="1" vertex="1">
          <mxGeometry x="1050" y="1316" width="64" height="86" as="geometry" />
        </mxCell>
        <mxCell id="1c7a67bf8fd3230f-32" value="" style="shape=mxgraph.cisco.misc.route_switch_processor;html=1;dashed=0;fillColor=#036897;strokeColor=#ffffff;strokeWidth=2;verticalLabelPosition=bottom;verticalAlign=top;rounded=0;shadow=0;comic=0;fontFamily=Verdana;fontSize=12;" parent="1" vertex="1">
          <mxGeometry x="1150" y="1316" width="64" height="86" as="geometry" />
        </mxCell>
        <mxCell id="1c7a67bf8fd3230f-33" value="" style="shape=mxgraph.cisco.misc.route_switch_processor;html=1;dashed=0;fillColor=#036897;strokeColor=#ffffff;strokeWidth=2;verticalLabelPosition=bottom;verticalAlign=top;rounded=0;shadow=0;comic=0;fontFamily=Verdana;fontSize=12;" parent="1" vertex="1">
          <mxGeometry x="1271" y="1316" width="64" height="86" as="geometry" />
        </mxCell>
        <mxCell id="1c7a67bf8fd3230f-34" value="" style="shape=mxgraph.cisco.misc.route_switch_processor;html=1;dashed=0;fillColor=#036897;strokeColor=#ffffff;strokeWidth=2;verticalLabelPosition=bottom;verticalAlign=top;rounded=0;shadow=0;comic=0;fontFamily=Verdana;fontSize=12;" parent="1" vertex="1">
          <mxGeometry x="1522" y="1316" width="64" height="86" as="geometry" />
        </mxCell>
        <mxCell id="1c7a67bf8fd3230f-35" value="" style="shape=mxgraph.cisco.misc.route_switch_processor;html=1;dashed=0;fillColor=#036897;strokeColor=#ffffff;strokeWidth=2;verticalLabelPosition=bottom;verticalAlign=top;rounded=0;shadow=0;comic=0;fontFamily=Verdana;fontSize=12;" parent="1" vertex="1">
          <mxGeometry x="1624" y="1316" width="64" height="86" as="geometry" />
        </mxCell>
        <mxCell id="1c7a67bf8fd3230f-55" style="edgeStyle=none;html=1;labelBackgroundColor=none;startFill=0;endArrow=none;endFill=0;strokeWidth=2;fontFamily=Verdana;fontSize=12;" parent="1" source="1c7a67bf8fd3230f-46" target="1c7a67bf8fd3230f-13" edge="1">
          <mxGeometry relative="1" as="geometry" />
        </mxCell>
        <mxCell id="1c7a67bf8fd3230f-46" value="" style="shape=mxgraph.cisco.routers.router;html=1;dashed=0;fillColor=#036897;strokeColor=#ffffff;strokeWidth=2;verticalLabelPosition=bottom;verticalAlign=top;rounded=0;shadow=0;comic=0;fontFamily=Verdana;fontSize=12;" parent="1" vertex="1">
          <mxGeometry x="880" y="626" width="78" height="53" as="geometry" />
        </mxCell>
        <mxCell id="1c7a67bf8fd3230f-54" style="edgeStyle=none;html=1;labelBackgroundColor=none;startFill=0;endArrow=none;endFill=0;strokeWidth=2;fontFamily=Verdana;fontSize=12;" parent="1" source="1c7a67bf8fd3230f-47" target="1c7a67bf8fd3230f-14" edge="1">
          <mxGeometry relative="1" as="geometry" />
        </mxCell>
        <mxCell id="1c7a67bf8fd3230f-47" value="" style="shape=mxgraph.cisco.routers.router;html=1;dashed=0;fillColor=#036897;strokeColor=#ffffff;strokeWidth=2;verticalLabelPosition=bottom;verticalAlign=top;rounded=0;shadow=0;comic=0;fontFamily=Verdana;fontSize=12;" parent="1" vertex="1">
          <mxGeometry x="1128" y="616" width="78" height="53" as="geometry" />
        </mxCell>
        <mxCell id="1c7a67bf8fd3230f-52" style="edgeStyle=none;html=1;labelBackgroundColor=none;startFill=0;endArrow=none;endFill=0;strokeWidth=2;fontFamily=Verdana;fontSize=12;" parent="1" source="1c7a67bf8fd3230f-48" target="1c7a67bf8fd3230f-15" edge="1">
          <mxGeometry relative="1" as="geometry" />
        </mxCell>
        <mxCell id="1c7a67bf8fd3230f-48" value="" style="shape=mxgraph.cisco.routers.router;html=1;dashed=0;fillColor=#036897;strokeColor=#ffffff;strokeWidth=2;verticalLabelPosition=bottom;verticalAlign=top;rounded=0;shadow=0;comic=0;fontFamily=Verdana;fontSize=12;" parent="1" vertex="1">
          <mxGeometry x="1412" y="619" width="78" height="53" as="geometry" />
        </mxCell>
      </root>
    </mxGraphModel>
  </diagram>
  <diagram id="JtwD2_yog-tnFNvSN1Xo" name="工作事宜模块时序图">
    <mxGraphModel dx="1320" dy="484" grid="0" gridSize="10" guides="1" tooltips="1" connect="1" arrows="1" fold="1" page="1" pageScale="1" pageWidth="827" pageHeight="1169" math="0" shadow="0">
      <root>
        <mxCell id="mY_nK3HmwrsAPJP7rzF9-0" />
        <mxCell id="mY_nK3HmwrsAPJP7rzF9-1" parent="mY_nK3HmwrsAPJP7rzF9-0" />
        <mxCell id="mY_nK3HmwrsAPJP7rzF9-2" value="" style="rounded=0;whiteSpace=wrap;html=1;hachureGap=4;pointerEvents=0;fillColor=#B2C9AB;strokeColor=#788AA3;fontColor=#46495D;" vertex="1" parent="mY_nK3HmwrsAPJP7rzF9-1">
          <mxGeometry x="62" y="107" width="25" height="229" as="geometry" />
        </mxCell>
        <mxCell id="mY_nK3HmwrsAPJP7rzF9-3" value="" style="endArrow=none;dashed=1;html=1;dashPattern=1 3;strokeWidth=2;startSize=14;endSize=14;targetPerimeterSpacing=8;startArrow=none;strokeColor=#788AA3;fontColor=#46495D;" edge="1" parent="mY_nK3HmwrsAPJP7rzF9-1">
          <mxGeometry width="50" height="50" relative="1" as="geometry">
            <mxPoint x="76" y="389" as="sourcePoint" />
            <mxPoint x="76" y="53" as="targetPoint" />
          </mxGeometry>
        </mxCell>
        <mxCell id="mY_nK3HmwrsAPJP7rzF9-29" value="" style="edgeStyle=none;shape=flexArrow;curved=1;rounded=1;sketch=0;orthogonalLoop=1;jettySize=auto;html=1;endArrow=open;sourcePerimeterSpacing=8;targetPerimeterSpacing=8;strokeColor=#788AA3;fontColor=#46495D;" edge="1" parent="mY_nK3HmwrsAPJP7rzF9-1" source="mY_nK3HmwrsAPJP7rzF9-4" target="mY_nK3HmwrsAPJP7rzF9-9">
          <mxGeometry relative="1" as="geometry" />
        </mxCell>
        <mxCell id="mY_nK3HmwrsAPJP7rzF9-4" value="业务表单起草" style="rounded=0;whiteSpace=wrap;html=1;hachureGap=4;pointerEvents=0;fillColor=#B2C9AB;strokeColor=#788AA3;fontColor=#46495D;" vertex="1" parent="mY_nK3HmwrsAPJP7rzF9-1">
          <mxGeometry x="120" y="47" width="120" height="60" as="geometry" />
        </mxCell>
        <mxCell id="mY_nK3HmwrsAPJP7rzF9-5" value="" style="endArrow=none;dashed=1;html=1;dashPattern=1 3;strokeWidth=2;startSize=14;endSize=14;sourcePerimeterSpacing=8;strokeColor=#788AA3;fontColor=#46495D;" edge="1" parent="mY_nK3HmwrsAPJP7rzF9-1" target="mY_nK3HmwrsAPJP7rzF9-2">
          <mxGeometry width="50" height="50" relative="1" as="geometry">
            <mxPoint x="76" y="381" as="sourcePoint" />
            <mxPoint x="76" y="53" as="targetPoint" />
          </mxGeometry>
        </mxCell>
        <mxCell id="mY_nK3HmwrsAPJP7rzF9-6" value="" style="rounded=0;whiteSpace=wrap;html=1;hachureGap=4;pointerEvents=0;fillColor=#B2C9AB;strokeColor=#788AA3;fontColor=#46495D;" vertex="1" parent="mY_nK3HmwrsAPJP7rzF9-1">
          <mxGeometry x="281" y="107" width="25" height="229" as="geometry" />
        </mxCell>
        <mxCell id="mY_nK3HmwrsAPJP7rzF9-7" value="" style="endArrow=none;dashed=1;html=1;dashPattern=1 3;strokeWidth=2;startSize=14;endSize=14;targetPerimeterSpacing=8;startArrow=none;strokeColor=#788AA3;fontColor=#46495D;" edge="1" parent="mY_nK3HmwrsAPJP7rzF9-1">
          <mxGeometry width="50" height="50" relative="1" as="geometry">
            <mxPoint x="294" y="385" as="sourcePoint" />
            <mxPoint x="294.48" y="63" as="targetPoint" />
          </mxGeometry>
        </mxCell>
        <mxCell id="mY_nK3HmwrsAPJP7rzF9-30" value="" style="edgeStyle=none;shape=flexArrow;curved=1;rounded=1;sketch=0;orthogonalLoop=1;jettySize=auto;html=1;endArrow=open;sourcePerimeterSpacing=8;targetPerimeterSpacing=8;strokeColor=#788AA3;fontColor=#46495D;" edge="1" parent="mY_nK3HmwrsAPJP7rzF9-1" source="mY_nK3HmwrsAPJP7rzF9-9" target="mY_nK3HmwrsAPJP7rzF9-12">
          <mxGeometry relative="1" as="geometry" />
        </mxCell>
        <mxCell id="mY_nK3HmwrsAPJP7rzF9-9" value="业务表单提交" style="rounded=0;whiteSpace=wrap;html=1;hachureGap=4;pointerEvents=0;fillColor=#B2C9AB;strokeColor=#788AA3;fontColor=#46495D;" vertex="1" parent="mY_nK3HmwrsAPJP7rzF9-1">
          <mxGeometry x="347" y="47" width="120" height="60" as="geometry" />
        </mxCell>
        <mxCell id="mY_nK3HmwrsAPJP7rzF9-74" value="" style="edgeStyle=none;shape=flexArrow;curved=1;rounded=1;sketch=0;orthogonalLoop=1;jettySize=auto;html=1;fontColor=#46495D;endArrow=open;sourcePerimeterSpacing=8;targetPerimeterSpacing=8;strokeColor=#788AA3;fillColor=#FFFFFF;" edge="1" parent="mY_nK3HmwrsAPJP7rzF9-1" source="mY_nK3HmwrsAPJP7rzF9-10" target="mY_nK3HmwrsAPJP7rzF9-72">
          <mxGeometry relative="1" as="geometry" />
        </mxCell>
        <mxCell id="mY_nK3HmwrsAPJP7rzF9-78" value="驳回发送待阅" style="edgeLabel;html=1;align=center;verticalAlign=middle;resizable=0;points=[];fontColor=#46495D;" vertex="1" connectable="0" parent="mY_nK3HmwrsAPJP7rzF9-74">
          <mxGeometry x="0.478" y="5" relative="1" as="geometry">
            <mxPoint x="39" y="-20" as="offset" />
          </mxGeometry>
        </mxCell>
        <mxCell id="mY_nK3HmwrsAPJP7rzF9-10" value="" style="rounded=0;whiteSpace=wrap;html=1;hachureGap=4;pointerEvents=0;fillColor=#B2C9AB;strokeColor=#788AA3;fontColor=#46495D;" vertex="1" parent="mY_nK3HmwrsAPJP7rzF9-1">
          <mxGeometry x="496" y="102" width="25" height="229" as="geometry" />
        </mxCell>
        <mxCell id="mY_nK3HmwrsAPJP7rzF9-11" value="" style="endArrow=none;dashed=1;html=1;dashPattern=1 3;strokeWidth=2;startSize=14;endSize=14;targetPerimeterSpacing=8;startArrow=none;strokeColor=#788AA3;fontColor=#46495D;" edge="1" parent="mY_nK3HmwrsAPJP7rzF9-1">
          <mxGeometry width="50" height="50" relative="1" as="geometry">
            <mxPoint x="508" y="380" as="sourcePoint" />
            <mxPoint x="508.48" y="58" as="targetPoint" />
          </mxGeometry>
        </mxCell>
        <mxCell id="mY_nK3HmwrsAPJP7rzF9-12" value="我的待办" style="rounded=0;whiteSpace=wrap;html=1;hachureGap=4;pointerEvents=0;fillColor=#B2C9AB;strokeColor=#788AA3;fontColor=#46495D;" vertex="1" parent="mY_nK3HmwrsAPJP7rzF9-1">
          <mxGeometry x="564" y="47" width="120" height="60" as="geometry" />
        </mxCell>
        <mxCell id="mY_nK3HmwrsAPJP7rzF9-13" value="" style="endArrow=classic;html=1;startSize=14;endSize=14;sourcePerimeterSpacing=8;targetPerimeterSpacing=8;exitX=1.04;exitY=0.279;exitDx=0;exitDy=0;exitPerimeter=0;entryX=0;entryY=0.279;entryDx=0;entryDy=0;entryPerimeter=0;strokeColor=#788AA3;fontColor=#46495D;" edge="1" parent="mY_nK3HmwrsAPJP7rzF9-1" source="mY_nK3HmwrsAPJP7rzF9-2" target="mY_nK3HmwrsAPJP7rzF9-6">
          <mxGeometry width="50" height="50" relative="1" as="geometry">
            <mxPoint x="387" y="210" as="sourcePoint" />
            <mxPoint x="437" y="160" as="targetPoint" />
          </mxGeometry>
        </mxCell>
        <mxCell id="mY_nK3HmwrsAPJP7rzF9-21" value="表单完整性校验" style="edgeLabel;html=1;align=center;verticalAlign=middle;resizable=0;points=[];fontColor=#46495D;" vertex="1" connectable="0" parent="mY_nK3HmwrsAPJP7rzF9-13">
          <mxGeometry x="-0.1237" y="-1" relative="1" as="geometry">
            <mxPoint as="offset" />
          </mxGeometry>
        </mxCell>
        <mxCell id="mY_nK3HmwrsAPJP7rzF9-24" value="" style="endArrow=classic;html=1;sourcePerimeterSpacing=8;targetPerimeterSpacing=8;entryX=1.12;entryY=0.834;entryDx=0;entryDy=0;entryPerimeter=0;dashed=1;strokeColor=#788AA3;fontColor=#46495D;" edge="1" parent="mY_nK3HmwrsAPJP7rzF9-1" target="mY_nK3HmwrsAPJP7rzF9-2">
          <mxGeometry width="50" height="50" relative="1" as="geometry">
            <mxPoint x="279" y="298" as="sourcePoint" />
            <mxPoint x="224" y="248" as="targetPoint" />
          </mxGeometry>
        </mxCell>
        <mxCell id="mY_nK3HmwrsAPJP7rzF9-25" value="检验失败后返回" style="edgeLabel;html=1;align=center;verticalAlign=middle;resizable=0;points=[];fontColor=#46495D;" vertex="1" connectable="0" parent="mY_nK3HmwrsAPJP7rzF9-24">
          <mxGeometry x="0.2381" y="-2" relative="1" as="geometry">
            <mxPoint x="14" as="offset" />
          </mxGeometry>
        </mxCell>
        <mxCell id="mY_nK3HmwrsAPJP7rzF9-31" value="" style="endArrow=classic;html=1;startSize=14;endSize=14;sourcePerimeterSpacing=8;targetPerimeterSpacing=8;exitX=1.04;exitY=0.279;exitDx=0;exitDy=0;exitPerimeter=0;entryX=-0.08;entryY=0.306;entryDx=0;entryDy=0;entryPerimeter=0;strokeColor=#788AA3;fontColor=#46495D;" edge="1" parent="mY_nK3HmwrsAPJP7rzF9-1" target="mY_nK3HmwrsAPJP7rzF9-10">
          <mxGeometry width="50" height="50" relative="1" as="geometry">
            <mxPoint x="310.5" y="172.00099999999998" as="sourcePoint" />
            <mxPoint x="503.5" y="172.00099999999998" as="targetPoint" />
          </mxGeometry>
        </mxCell>
        <mxCell id="mY_nK3HmwrsAPJP7rzF9-32" value="是否选人校验" style="edgeLabel;html=1;align=center;verticalAlign=middle;resizable=0;points=[];fontColor=#46495D;" vertex="1" connectable="0" parent="mY_nK3HmwrsAPJP7rzF9-31">
          <mxGeometry x="-0.1237" y="-1" relative="1" as="geometry">
            <mxPoint as="offset" />
          </mxGeometry>
        </mxCell>
        <mxCell id="mY_nK3HmwrsAPJP7rzF9-34" value="" style="endArrow=classic;html=1;sourcePerimeterSpacing=8;targetPerimeterSpacing=8;dashed=1;strokeColor=#788AA3;fontColor=#46495D;" edge="1" parent="mY_nK3HmwrsAPJP7rzF9-1">
          <mxGeometry width="50" height="50" relative="1" as="geometry">
            <mxPoint x="492" y="246.01" as="sourcePoint" />
            <mxPoint x="90" y="246" as="targetPoint" />
          </mxGeometry>
        </mxCell>
        <mxCell id="mY_nK3HmwrsAPJP7rzF9-35" value="检验失败后返回" style="edgeLabel;html=1;align=center;verticalAlign=middle;resizable=0;points=[];fontColor=#46495D;" vertex="1" connectable="0" parent="mY_nK3HmwrsAPJP7rzF9-34">
          <mxGeometry x="0.2381" y="-2" relative="1" as="geometry">
            <mxPoint x="150" as="offset" />
          </mxGeometry>
        </mxCell>
        <mxCell id="mY_nK3HmwrsAPJP7rzF9-37" value="" style="rounded=0;whiteSpace=wrap;html=1;hachureGap=4;pointerEvents=0;fillColor=#B2C9AB;strokeColor=#788AA3;fontColor=#46495D;" vertex="1" parent="mY_nK3HmwrsAPJP7rzF9-1">
          <mxGeometry x="715" y="102" width="25" height="229" as="geometry" />
        </mxCell>
        <mxCell id="mY_nK3HmwrsAPJP7rzF9-38" value="" style="endArrow=none;dashed=1;html=1;dashPattern=1 3;strokeWidth=2;startSize=14;endSize=14;targetPerimeterSpacing=8;startArrow=none;strokeColor=#788AA3;fontColor=#46495D;" edge="1" parent="mY_nK3HmwrsAPJP7rzF9-1">
          <mxGeometry width="50" height="50" relative="1" as="geometry">
            <mxPoint x="727" y="386" as="sourcePoint" />
            <mxPoint x="727.48" y="64" as="targetPoint" />
          </mxGeometry>
        </mxCell>
        <mxCell id="mY_nK3HmwrsAPJP7rzF9-41" value="" style="endArrow=classic;html=1;startSize=14;endSize=14;sourcePerimeterSpacing=8;targetPerimeterSpacing=8;exitX=1.04;exitY=0.279;exitDx=0;exitDy=0;exitPerimeter=0;entryX=-0.08;entryY=0.306;entryDx=0;entryDy=0;entryPerimeter=0;strokeColor=#788AA3;fontColor=#46495D;" edge="1" parent="mY_nK3HmwrsAPJP7rzF9-1">
          <mxGeometry width="50" height="50" relative="1" as="geometry">
            <mxPoint x="310" y="203.00099999999992" as="sourcePoint" />
            <mxPoint x="493.5" y="203.074" as="targetPoint" />
          </mxGeometry>
        </mxCell>
        <mxCell id="mY_nK3HmwrsAPJP7rzF9-42" value="流程是否是最后环节检验" style="edgeLabel;html=1;align=center;verticalAlign=middle;resizable=0;points=[];fontColor=#46495D;" vertex="1" connectable="0" parent="mY_nK3HmwrsAPJP7rzF9-41">
          <mxGeometry x="-0.1237" y="-1" relative="1" as="geometry">
            <mxPoint as="offset" />
          </mxGeometry>
        </mxCell>
        <mxCell id="mY_nK3HmwrsAPJP7rzF9-46" value="" style="endArrow=classic;html=1;startSize=14;endSize=14;sourcePerimeterSpacing=8;targetPerimeterSpacing=8;exitX=1.04;exitY=0.279;exitDx=0;exitDy=0;exitPerimeter=0;entryX=-0.08;entryY=0.306;entryDx=0;entryDy=0;entryPerimeter=0;strokeColor=#788AA3;fontColor=#46495D;" edge="1" parent="mY_nK3HmwrsAPJP7rzF9-1">
          <mxGeometry width="50" height="50" relative="1" as="geometry">
            <mxPoint x="527" y="171.00099999999998" as="sourcePoint" />
            <mxPoint x="710.5" y="171.07399999999996" as="targetPoint" />
          </mxGeometry>
        </mxCell>
        <mxCell id="mY_nK3HmwrsAPJP7rzF9-47" value="是否同意业务申请" style="edgeLabel;html=1;align=center;verticalAlign=middle;resizable=0;points=[];fontColor=#46495D;" vertex="1" connectable="0" parent="mY_nK3HmwrsAPJP7rzF9-46">
          <mxGeometry x="-0.1237" y="-1" relative="1" as="geometry">
            <mxPoint as="offset" />
          </mxGeometry>
        </mxCell>
        <mxCell id="mY_nK3HmwrsAPJP7rzF9-51" value="" style="endArrow=classic;html=1;sourcePerimeterSpacing=8;targetPerimeterSpacing=8;dashed=1;entryX=1;entryY=0.93;entryDx=0;entryDy=0;entryPerimeter=0;strokeColor=#788AA3;fontColor=#46495D;" edge="1" parent="mY_nK3HmwrsAPJP7rzF9-1" target="mY_nK3HmwrsAPJP7rzF9-2">
          <mxGeometry width="50" height="50" relative="1" as="geometry">
            <mxPoint x="715" y="316.01" as="sourcePoint" />
            <mxPoint x="313" y="316" as="targetPoint" />
          </mxGeometry>
        </mxCell>
        <mxCell id="mY_nK3HmwrsAPJP7rzF9-52" value="驳回至起草人" style="edgeLabel;html=1;align=center;verticalAlign=middle;resizable=0;points=[];fontColor=#46495D;" vertex="1" connectable="0" parent="mY_nK3HmwrsAPJP7rzF9-51">
          <mxGeometry x="0.2381" y="-2" relative="1" as="geometry">
            <mxPoint x="294" as="offset" />
          </mxGeometry>
        </mxCell>
        <mxCell id="mY_nK3HmwrsAPJP7rzF9-82" value="" style="edgeStyle=none;shape=flexArrow;curved=1;rounded=1;sketch=0;orthogonalLoop=1;jettySize=auto;html=1;fontColor=#46495D;endArrow=open;sourcePerimeterSpacing=8;targetPerimeterSpacing=8;strokeColor=#788AA3;fillColor=#FFFFFF;" edge="1" parent="mY_nK3HmwrsAPJP7rzF9-1" source="mY_nK3HmwrsAPJP7rzF9-58" target="mY_nK3HmwrsAPJP7rzF9-79">
          <mxGeometry relative="1" as="geometry" />
        </mxCell>
        <mxCell id="mY_nK3HmwrsAPJP7rzF9-58" value="我的已办" style="rounded=0;whiteSpace=wrap;html=1;hachureGap=4;pointerEvents=0;fillColor=#B2C9AB;strokeColor=#788AA3;fontColor=#46495D;" vertex="1" parent="mY_nK3HmwrsAPJP7rzF9-1">
          <mxGeometry x="771" y="47" width="120" height="60" as="geometry" />
        </mxCell>
        <mxCell id="mY_nK3HmwrsAPJP7rzF9-60" value="" style="edgeStyle=none;shape=flexArrow;curved=1;rounded=1;sketch=0;orthogonalLoop=1;jettySize=auto;html=1;endArrow=open;sourcePerimeterSpacing=8;targetPerimeterSpacing=8;strokeColor=#788AA3;fontColor=#46495D;" edge="1" parent="mY_nK3HmwrsAPJP7rzF9-1">
          <mxGeometry relative="1" as="geometry">
            <mxPoint x="687.0000000000002" y="80" as="sourcePoint" />
            <mxPoint x="768" y="80" as="targetPoint" />
          </mxGeometry>
        </mxCell>
        <mxCell id="mY_nK3HmwrsAPJP7rzF9-63" value="" style="rounded=0;whiteSpace=wrap;html=1;hachureGap=4;pointerEvents=0;fillColor=#B2C9AB;strokeColor=#788AA3;fontColor=#46495D;" vertex="1" parent="mY_nK3HmwrsAPJP7rzF9-1">
          <mxGeometry x="922" y="102" width="25" height="229" as="geometry" />
        </mxCell>
        <mxCell id="mY_nK3HmwrsAPJP7rzF9-65" value="" style="endArrow=none;dashed=1;html=1;dashPattern=1 3;strokeWidth=2;startSize=14;endSize=14;targetPerimeterSpacing=8;startArrow=none;strokeColor=#788AA3;fontColor=#46495D;" edge="1" parent="mY_nK3HmwrsAPJP7rzF9-1">
          <mxGeometry width="50" height="50" relative="1" as="geometry">
            <mxPoint x="934.08" y="388" as="sourcePoint" />
            <mxPoint x="934.5600000000001" y="66" as="targetPoint" />
          </mxGeometry>
        </mxCell>
        <mxCell id="mY_nK3HmwrsAPJP7rzF9-66" value="" style="endArrow=classic;html=1;startSize=14;endSize=14;sourcePerimeterSpacing=8;targetPerimeterSpacing=8;exitX=1.04;exitY=0.279;exitDx=0;exitDy=0;exitPerimeter=0;entryX=-0.08;entryY=0.306;entryDx=0;entryDy=0;entryPerimeter=0;strokeColor=#788AA3;fontColor=#46495D;" edge="1" parent="mY_nK3HmwrsAPJP7rzF9-1">
          <mxGeometry width="50" height="50" relative="1" as="geometry">
            <mxPoint x="740" y="169.00099999999998" as="sourcePoint" />
            <mxPoint x="923.5" y="169.07399999999996" as="targetPoint" />
          </mxGeometry>
        </mxCell>
        <mxCell id="mY_nK3HmwrsAPJP7rzF9-67" value="业务申请审批通过" style="edgeLabel;html=1;align=center;verticalAlign=middle;resizable=0;points=[];fontColor=#46495D;" vertex="1" connectable="0" parent="mY_nK3HmwrsAPJP7rzF9-66">
          <mxGeometry x="-0.1237" y="-1" relative="1" as="geometry">
            <mxPoint as="offset" />
          </mxGeometry>
        </mxCell>
        <mxCell id="mY_nK3HmwrsAPJP7rzF9-76" value="" style="edgeStyle=none;shape=flexArrow;curved=1;rounded=1;sketch=0;orthogonalLoop=1;jettySize=auto;html=1;fontColor=#46495D;endArrow=open;sourcePerimeterSpacing=8;targetPerimeterSpacing=8;strokeColor=#788AA3;fillColor=#FFFFFF;" edge="1" parent="mY_nK3HmwrsAPJP7rzF9-1" source="mY_nK3HmwrsAPJP7rzF9-72" target="mY_nK3HmwrsAPJP7rzF9-75">
          <mxGeometry relative="1" as="geometry" />
        </mxCell>
        <mxCell id="mY_nK3HmwrsAPJP7rzF9-72" value="我的待阅" style="rounded=0;whiteSpace=wrap;html=1;hachureGap=4;pointerEvents=0;fillColor=#B2C9AB;strokeColor=#788AA3;fontColor=#46495D;" vertex="1" parent="mY_nK3HmwrsAPJP7rzF9-1">
          <mxGeometry x="448.5" y="399" width="120" height="60" as="geometry" />
        </mxCell>
        <mxCell id="mY_nK3HmwrsAPJP7rzF9-75" value="我的已阅" style="rounded=0;whiteSpace=wrap;html=1;hachureGap=4;pointerEvents=0;fillColor=#B2C9AB;strokeColor=#788AA3;fontColor=#46495D;" vertex="1" parent="mY_nK3HmwrsAPJP7rzF9-1">
          <mxGeometry x="233.5" y="399" width="120" height="60" as="geometry" />
        </mxCell>
        <mxCell id="mY_nK3HmwrsAPJP7rzF9-79" value="我的办结" style="rounded=0;whiteSpace=wrap;html=1;hachureGap=4;pointerEvents=0;fillColor=#B2C9AB;strokeColor=#788AA3;fontColor=#46495D;" vertex="1" parent="mY_nK3HmwrsAPJP7rzF9-1">
          <mxGeometry x="978" y="50" width="120" height="60" as="geometry" />
        </mxCell>
        <mxCell id="mY_nK3HmwrsAPJP7rzF9-80" value="" style="rounded=0;whiteSpace=wrap;html=1;hachureGap=4;pointerEvents=0;fillColor=#B2C9AB;strokeColor=#788AA3;fontColor=#46495D;" vertex="1" parent="mY_nK3HmwrsAPJP7rzF9-1">
          <mxGeometry x="1129" y="107" width="25" height="229" as="geometry" />
        </mxCell>
        <mxCell id="mY_nK3HmwrsAPJP7rzF9-81" value="" style="endArrow=none;dashed=1;html=1;dashPattern=1 3;strokeWidth=2;startSize=14;endSize=14;targetPerimeterSpacing=8;startArrow=none;strokeColor=#788AA3;fontColor=#46495D;" edge="1" parent="mY_nK3HmwrsAPJP7rzF9-1">
          <mxGeometry width="50" height="50" relative="1" as="geometry">
            <mxPoint x="1141.08" y="399" as="sourcePoint" />
            <mxPoint x="1141.56" y="76.99999999999994" as="targetPoint" />
          </mxGeometry>
        </mxCell>
        <mxCell id="mY_nK3HmwrsAPJP7rzF9-83" value="" style="endArrow=classic;html=1;startSize=14;endSize=14;sourcePerimeterSpacing=8;targetPerimeterSpacing=8;exitX=1.04;exitY=0.279;exitDx=0;exitDy=0;exitPerimeter=0;entryX=-0.08;entryY=0.306;entryDx=0;entryDy=0;entryPerimeter=0;strokeColor=#788AA3;fontColor=#46495D;" edge="1" parent="mY_nK3HmwrsAPJP7rzF9-1">
          <mxGeometry width="50" height="50" relative="1" as="geometry">
            <mxPoint x="947" y="169.00099999999998" as="sourcePoint" />
            <mxPoint x="1130.5" y="169.07399999999996" as="targetPoint" />
          </mxGeometry>
        </mxCell>
        <mxCell id="mY_nK3HmwrsAPJP7rzF9-84" value="业务流程结束" style="edgeLabel;html=1;align=center;verticalAlign=middle;resizable=0;points=[];fontColor=#46495D;" vertex="1" connectable="0" parent="mY_nK3HmwrsAPJP7rzF9-83">
          <mxGeometry x="-0.1237" y="-1" relative="1" as="geometry">
            <mxPoint as="offset" />
          </mxGeometry>
        </mxCell>
        <mxCell id="mY_nK3HmwrsAPJP7rzF9-85" value="" style="endArrow=classic;html=1;startSize=14;endSize=14;sourcePerimeterSpacing=8;targetPerimeterSpacing=8;exitX=1.173;exitY=0.799;exitDx=0;exitDy=0;exitPerimeter=0;strokeColor=#788AA3;fontColor=#46495D;" edge="1" parent="mY_nK3HmwrsAPJP7rzF9-1" source="mY_nK3HmwrsAPJP7rzF9-6">
          <mxGeometry width="50" height="50" relative="1" as="geometry">
            <mxPoint x="306" y="281.001" as="sourcePoint" />
            <mxPoint x="715" y="290" as="targetPoint" />
          </mxGeometry>
        </mxCell>
        <mxCell id="mY_nK3HmwrsAPJP7rzF9-86" value="是否选人校验" style="edgeLabel;html=1;align=center;verticalAlign=middle;resizable=0;points=[];fontColor=#46495D;" vertex="1" connectable="0" parent="mY_nK3HmwrsAPJP7rzF9-85">
          <mxGeometry x="-0.1237" y="-1" relative="1" as="geometry">
            <mxPoint x="130" y="-2" as="offset" />
          </mxGeometry>
        </mxCell>
      </root>
    </mxGraphModel>
  </diagram>
  <diagram id="zsK5Kc92D-bLS8hbBwvE" name="登录模块时序图">
    <mxGraphModel dx="868" dy="450" grid="0" gridSize="10" guides="1" tooltips="1" connect="1" arrows="1" fold="1" page="1" pageScale="1" pageWidth="827" pageHeight="1169" math="0" shadow="0">
      <root>
        <mxCell id="U_qJlXAUU9-E40eDJ871-0" />
        <mxCell id="U_qJlXAUU9-E40eDJ871-1" parent="U_qJlXAUU9-E40eDJ871-0" />
        <mxCell id="ZZ1Go-hmm1u9_43SG65c-0" value="" style="rounded=0;whiteSpace=wrap;html=1;hachureGap=4;pointerEvents=0;fillColor=#B2C9AB;strokeColor=#788AA3;fontColor=#46495D;" parent="U_qJlXAUU9-E40eDJ871-1" vertex="1">
          <mxGeometry x="62" y="107" width="25" height="229" as="geometry" />
        </mxCell>
        <mxCell id="ZZ1Go-hmm1u9_43SG65c-1" value="" style="endArrow=none;dashed=1;html=1;dashPattern=1 3;strokeWidth=2;startSize=14;endSize=14;targetPerimeterSpacing=8;startArrow=none;strokeColor=#788AA3;fontColor=#46495D;" parent="U_qJlXAUU9-E40eDJ871-1" edge="1">
          <mxGeometry width="50" height="50" relative="1" as="geometry">
            <mxPoint x="76" y="389" as="sourcePoint" />
            <mxPoint x="76" y="53" as="targetPoint" />
          </mxGeometry>
        </mxCell>
        <mxCell id="ZZ1Go-hmm1u9_43SG65c-2" value="" style="edgeStyle=none;shape=flexArrow;curved=1;rounded=1;sketch=0;orthogonalLoop=1;jettySize=auto;html=1;endArrow=open;sourcePerimeterSpacing=8;targetPerimeterSpacing=8;strokeColor=#788AA3;fontColor=#46495D;" parent="U_qJlXAUU9-E40eDJ871-1" source="ZZ1Go-hmm1u9_43SG65c-3" target="ZZ1Go-hmm1u9_43SG65c-8" edge="1">
          <mxGeometry relative="1" as="geometry" />
        </mxCell>
        <mxCell id="ZZ1Go-hmm1u9_43SG65c-3" value="用户登录" style="rounded=0;whiteSpace=wrap;html=1;hachureGap=4;pointerEvents=0;fillColor=#B2C9AB;strokeColor=#788AA3;fontColor=#46495D;" parent="U_qJlXAUU9-E40eDJ871-1" vertex="1">
          <mxGeometry x="120" y="47" width="120" height="60" as="geometry" />
        </mxCell>
        <mxCell id="ZZ1Go-hmm1u9_43SG65c-4" value="" style="endArrow=none;dashed=1;html=1;dashPattern=1 3;strokeWidth=2;startSize=14;endSize=14;sourcePerimeterSpacing=8;strokeColor=#788AA3;fontColor=#46495D;" parent="U_qJlXAUU9-E40eDJ871-1" target="ZZ1Go-hmm1u9_43SG65c-0" edge="1">
          <mxGeometry width="50" height="50" relative="1" as="geometry">
            <mxPoint x="76" y="381" as="sourcePoint" />
            <mxPoint x="76" y="53" as="targetPoint" />
          </mxGeometry>
        </mxCell>
        <mxCell id="ZZ1Go-hmm1u9_43SG65c-5" value="" style="rounded=0;whiteSpace=wrap;html=1;hachureGap=4;pointerEvents=0;fillColor=#B2C9AB;strokeColor=#788AA3;fontColor=#46495D;" parent="U_qJlXAUU9-E40eDJ871-1" vertex="1">
          <mxGeometry x="281" y="107" width="25" height="229" as="geometry" />
        </mxCell>
        <mxCell id="ZZ1Go-hmm1u9_43SG65c-6" value="" style="endArrow=none;dashed=1;html=1;dashPattern=1 3;strokeWidth=2;startSize=14;endSize=14;targetPerimeterSpacing=8;startArrow=none;strokeColor=#788AA3;fontColor=#46495D;" parent="U_qJlXAUU9-E40eDJ871-1" edge="1">
          <mxGeometry width="50" height="50" relative="1" as="geometry">
            <mxPoint x="294" y="385" as="sourcePoint" />
            <mxPoint x="294.48" y="63" as="targetPoint" />
          </mxGeometry>
        </mxCell>
        <mxCell id="ZZ1Go-hmm1u9_43SG65c-7" value="" style="edgeStyle=none;shape=flexArrow;curved=1;rounded=1;sketch=0;orthogonalLoop=1;jettySize=auto;html=1;endArrow=open;sourcePerimeterSpacing=8;targetPerimeterSpacing=8;strokeColor=#788AA3;fontColor=#46495D;" parent="U_qJlXAUU9-E40eDJ871-1" source="ZZ1Go-hmm1u9_43SG65c-8" target="ZZ1Go-hmm1u9_43SG65c-13" edge="1">
          <mxGeometry relative="1" as="geometry" />
        </mxCell>
        <mxCell id="ZZ1Go-hmm1u9_43SG65c-8" value="销售集团门户" style="rounded=0;whiteSpace=wrap;html=1;hachureGap=4;pointerEvents=0;fillColor=#B2C9AB;strokeColor=#788AA3;fontColor=#46495D;" parent="U_qJlXAUU9-E40eDJ871-1" vertex="1">
          <mxGeometry x="347" y="47" width="120" height="60" as="geometry" />
        </mxCell>
        <mxCell id="ZZ1Go-hmm1u9_43SG65c-11" value="" style="rounded=0;whiteSpace=wrap;html=1;hachureGap=4;pointerEvents=0;fillColor=#B2C9AB;strokeColor=#788AA3;fontColor=#46495D;" parent="U_qJlXAUU9-E40eDJ871-1" vertex="1">
          <mxGeometry x="496" y="102" width="25" height="229" as="geometry" />
        </mxCell>
        <mxCell id="ZZ1Go-hmm1u9_43SG65c-12" value="" style="endArrow=none;dashed=1;html=1;dashPattern=1 3;strokeWidth=2;startSize=14;endSize=14;targetPerimeterSpacing=8;startArrow=none;strokeColor=#788AA3;fontColor=#46495D;" parent="U_qJlXAUU9-E40eDJ871-1" edge="1">
          <mxGeometry width="50" height="50" relative="1" as="geometry">
            <mxPoint x="508" y="380" as="sourcePoint" />
            <mxPoint x="508.48" y="58" as="targetPoint" />
          </mxGeometry>
        </mxCell>
        <mxCell id="ZZ1Go-hmm1u9_43SG65c-13" value="客户经理销售系统" style="rounded=0;whiteSpace=wrap;html=1;hachureGap=4;pointerEvents=0;fillColor=#B2C9AB;strokeColor=#788AA3;fontColor=#46495D;" parent="U_qJlXAUU9-E40eDJ871-1" vertex="1">
          <mxGeometry x="564" y="47" width="120" height="60" as="geometry" />
        </mxCell>
        <mxCell id="ZZ1Go-hmm1u9_43SG65c-14" value="" style="endArrow=classic;html=1;startSize=14;endSize=14;sourcePerimeterSpacing=8;targetPerimeterSpacing=8;exitX=1.04;exitY=0.279;exitDx=0;exitDy=0;exitPerimeter=0;entryX=0;entryY=0.279;entryDx=0;entryDy=0;entryPerimeter=0;strokeColor=#788AA3;fontColor=#46495D;" parent="U_qJlXAUU9-E40eDJ871-1" source="ZZ1Go-hmm1u9_43SG65c-0" target="ZZ1Go-hmm1u9_43SG65c-5" edge="1">
          <mxGeometry width="50" height="50" relative="1" as="geometry">
            <mxPoint x="387" y="210" as="sourcePoint" />
            <mxPoint x="437" y="160" as="targetPoint" />
          </mxGeometry>
        </mxCell>
        <mxCell id="ZZ1Go-hmm1u9_43SG65c-47" value="输入账密" style="edgeLabel;html=1;align=center;verticalAlign=middle;resizable=0;points=[];fontColor=#46495D;" parent="ZZ1Go-hmm1u9_43SG65c-14" vertex="1" connectable="0">
          <mxGeometry x="-0.1503" y="-1" relative="1" as="geometry">
            <mxPoint as="offset" />
          </mxGeometry>
        </mxCell>
        <mxCell id="ZZ1Go-hmm1u9_43SG65c-16" value="" style="endArrow=classic;html=1;sourcePerimeterSpacing=8;targetPerimeterSpacing=8;entryX=1.12;entryY=0.834;entryDx=0;entryDy=0;entryPerimeter=0;dashed=1;strokeColor=#788AA3;fontColor=#46495D;" parent="U_qJlXAUU9-E40eDJ871-1" target="ZZ1Go-hmm1u9_43SG65c-0" edge="1">
          <mxGeometry width="50" height="50" relative="1" as="geometry">
            <mxPoint x="279" y="298" as="sourcePoint" />
            <mxPoint x="224" y="248" as="targetPoint" />
            <Array as="points">
              <mxPoint x="244" y="298" />
            </Array>
          </mxGeometry>
        </mxCell>
        <mxCell id="ZZ1Go-hmm1u9_43SG65c-17" value="账密校验失败返回" style="edgeLabel;html=1;align=center;verticalAlign=middle;resizable=0;points=[];fontColor=#46495D;" parent="ZZ1Go-hmm1u9_43SG65c-16" vertex="1" connectable="0">
          <mxGeometry x="0.2381" y="-2" relative="1" as="geometry">
            <mxPoint x="14" as="offset" />
          </mxGeometry>
        </mxCell>
        <mxCell id="ZZ1Go-hmm1u9_43SG65c-18" value="" style="endArrow=classic;html=1;startSize=14;endSize=14;sourcePerimeterSpacing=8;targetPerimeterSpacing=8;exitX=0.96;exitY=0.284;exitDx=0;exitDy=0;exitPerimeter=0;entryX=-0.08;entryY=0.306;entryDx=0;entryDy=0;entryPerimeter=0;strokeColor=#788AA3;fontColor=#46495D;" parent="U_qJlXAUU9-E40eDJ871-1" source="ZZ1Go-hmm1u9_43SG65c-5" target="ZZ1Go-hmm1u9_43SG65c-11" edge="1">
          <mxGeometry width="50" height="50" relative="1" as="geometry">
            <mxPoint x="310.5" y="172.00099999999998" as="sourcePoint" />
            <mxPoint x="503.5" y="172.00099999999998" as="targetPoint" />
          </mxGeometry>
        </mxCell>
        <mxCell id="ZZ1Go-hmm1u9_43SG65c-19" value="点击对应系统入口" style="edgeLabel;html=1;align=center;verticalAlign=middle;resizable=0;points=[];fontColor=#46495D;" parent="ZZ1Go-hmm1u9_43SG65c-18" vertex="1" connectable="0">
          <mxGeometry x="-0.1237" y="-1" relative="1" as="geometry">
            <mxPoint as="offset" />
          </mxGeometry>
        </mxCell>
        <mxCell id="ZZ1Go-hmm1u9_43SG65c-22" value="" style="rounded=0;whiteSpace=wrap;html=1;hachureGap=4;pointerEvents=0;fillColor=#B2C9AB;strokeColor=#788AA3;fontColor=#46495D;" parent="U_qJlXAUU9-E40eDJ871-1" vertex="1">
          <mxGeometry x="715" y="102" width="25" height="229" as="geometry" />
        </mxCell>
        <mxCell id="ZZ1Go-hmm1u9_43SG65c-23" value="" style="endArrow=none;dashed=1;html=1;dashPattern=1 3;strokeWidth=2;startSize=14;endSize=14;targetPerimeterSpacing=8;startArrow=none;strokeColor=#788AA3;fontColor=#46495D;" parent="U_qJlXAUU9-E40eDJ871-1" edge="1">
          <mxGeometry width="50" height="50" relative="1" as="geometry">
            <mxPoint x="727" y="386" as="sourcePoint" />
            <mxPoint x="727.48" y="64" as="targetPoint" />
          </mxGeometry>
        </mxCell>
        <mxCell id="ZZ1Go-hmm1u9_43SG65c-24" value="" style="endArrow=classic;html=1;startSize=14;endSize=14;sourcePerimeterSpacing=8;targetPerimeterSpacing=8;exitX=0.977;exitY=0.444;exitDx=0;exitDy=0;exitPerimeter=0;strokeColor=#788AA3;fontColor=#46495D;" parent="U_qJlXAUU9-E40eDJ871-1" source="ZZ1Go-hmm1u9_43SG65c-5" edge="1">
          <mxGeometry width="50" height="50" relative="1" as="geometry">
            <mxPoint x="312" y="208.00099999999998" as="sourcePoint" />
            <mxPoint x="496" y="208" as="targetPoint" />
          </mxGeometry>
        </mxCell>
        <mxCell id="ZZ1Go-hmm1u9_43SG65c-25" value="获取用户信息校验系统权限" style="edgeLabel;html=1;align=center;verticalAlign=middle;resizable=0;points=[];fontColor=#46495D;" parent="ZZ1Go-hmm1u9_43SG65c-24" vertex="1" connectable="0">
          <mxGeometry x="-0.1237" y="-1" relative="1" as="geometry">
            <mxPoint as="offset" />
          </mxGeometry>
        </mxCell>
        <mxCell id="ZZ1Go-hmm1u9_43SG65c-26" value="" style="endArrow=classic;html=1;startSize=14;endSize=14;sourcePerimeterSpacing=8;targetPerimeterSpacing=8;exitX=1;exitY=0.299;exitDx=0;exitDy=0;exitPerimeter=0;entryX=0.03;entryY=0.297;entryDx=0;entryDy=0;entryPerimeter=0;strokeColor=#788AA3;fontColor=#46495D;" parent="U_qJlXAUU9-E40eDJ871-1" source="ZZ1Go-hmm1u9_43SG65c-11" target="ZZ1Go-hmm1u9_43SG65c-22" edge="1">
          <mxGeometry width="50" height="50" relative="1" as="geometry">
            <mxPoint x="527" y="171.00099999999998" as="sourcePoint" />
            <mxPoint x="710.5" y="171.07399999999996" as="targetPoint" />
          </mxGeometry>
        </mxCell>
        <mxCell id="ZZ1Go-hmm1u9_43SG65c-27" value="用户满足系统权限" style="edgeLabel;html=1;align=center;verticalAlign=middle;resizable=0;points=[];fontColor=#46495D;" parent="ZZ1Go-hmm1u9_43SG65c-26" vertex="1" connectable="0">
          <mxGeometry x="-0.1237" y="-1" relative="1" as="geometry">
            <mxPoint as="offset" />
          </mxGeometry>
        </mxCell>
        <mxCell id="ZZ1Go-hmm1u9_43SG65c-31" value="业务管理系统" style="rounded=0;whiteSpace=wrap;html=1;hachureGap=4;pointerEvents=0;fillColor=#B2C9AB;strokeColor=#788AA3;fontColor=#46495D;" parent="U_qJlXAUU9-E40eDJ871-1" vertex="1">
          <mxGeometry x="771" y="47" width="120" height="60" as="geometry" />
        </mxCell>
        <mxCell id="ZZ1Go-hmm1u9_43SG65c-32" value="" style="edgeStyle=none;shape=flexArrow;curved=1;rounded=1;sketch=0;orthogonalLoop=1;jettySize=auto;html=1;endArrow=open;sourcePerimeterSpacing=8;targetPerimeterSpacing=8;strokeColor=#788AA3;fontColor=#46495D;" parent="U_qJlXAUU9-E40eDJ871-1" edge="1">
          <mxGeometry relative="1" as="geometry">
            <mxPoint x="687.0000000000002" y="80" as="sourcePoint" />
            <mxPoint x="768" y="80" as="targetPoint" />
          </mxGeometry>
        </mxCell>
        <mxCell id="ZZ1Go-hmm1u9_43SG65c-33" value="" style="rounded=0;whiteSpace=wrap;html=1;hachureGap=4;pointerEvents=0;fillColor=#B2C9AB;strokeColor=#788AA3;fontColor=#46495D;" parent="U_qJlXAUU9-E40eDJ871-1" vertex="1">
          <mxGeometry x="922" y="102" width="25" height="229" as="geometry" />
        </mxCell>
        <mxCell id="ZZ1Go-hmm1u9_43SG65c-34" value="" style="endArrow=none;dashed=1;html=1;dashPattern=1 3;strokeWidth=2;startSize=14;endSize=14;targetPerimeterSpacing=8;startArrow=none;strokeColor=#788AA3;fontColor=#46495D;" parent="U_qJlXAUU9-E40eDJ871-1" edge="1">
          <mxGeometry width="50" height="50" relative="1" as="geometry">
            <mxPoint x="934.0799999999999" y="388" as="sourcePoint" />
            <mxPoint x="934.56" y="66" as="targetPoint" />
          </mxGeometry>
        </mxCell>
        <mxCell id="ZZ1Go-hmm1u9_43SG65c-35" value="" style="endArrow=classic;html=1;startSize=14;endSize=14;sourcePerimeterSpacing=8;targetPerimeterSpacing=8;exitX=1.04;exitY=0.279;exitDx=0;exitDy=0;exitPerimeter=0;entryX=-0.08;entryY=0.306;entryDx=0;entryDy=0;entryPerimeter=0;strokeColor=#788AA3;fontColor=#46495D;" parent="U_qJlXAUU9-E40eDJ871-1" edge="1">
          <mxGeometry width="50" height="50" relative="1" as="geometry">
            <mxPoint x="740" y="169.00099999999998" as="sourcePoint" />
            <mxPoint x="923.5" y="169.07399999999996" as="targetPoint" />
          </mxGeometry>
        </mxCell>
        <mxCell id="ZZ1Go-hmm1u9_43SG65c-36" value="从Request中获取URL串" style="edgeLabel;html=1;align=center;verticalAlign=middle;resizable=0;points=[];fontColor=#46495D;" parent="ZZ1Go-hmm1u9_43SG65c-35" vertex="1" connectable="0">
          <mxGeometry x="-0.1237" y="-1" relative="1" as="geometry">
            <mxPoint as="offset" />
          </mxGeometry>
        </mxCell>
        <mxCell id="ZZ1Go-hmm1u9_43SG65c-56" value="" style="endArrow=classic;html=1;sourcePerimeterSpacing=8;targetPerimeterSpacing=8;entryX=1.12;entryY=0.834;entryDx=0;entryDy=0;entryPerimeter=0;dashed=1;strokeColor=#788AA3;fontColor=#46495D;" parent="U_qJlXAUU9-E40eDJ871-1" edge="1">
          <mxGeometry width="50" height="50" relative="1" as="geometry">
            <mxPoint x="497.5" y="265" as="sourcePoint" />
            <mxPoint x="89.49999999999989" y="264.996" as="targetPoint" />
            <Array as="points">
              <mxPoint x="243.5" y="265.01" />
            </Array>
          </mxGeometry>
        </mxCell>
        <mxCell id="ZZ1Go-hmm1u9_43SG65c-57" value="未分配系统权限" style="edgeLabel;html=1;align=center;verticalAlign=middle;resizable=0;points=[];fontColor=#46495D;" parent="ZZ1Go-hmm1u9_43SG65c-56" vertex="1" connectable="0">
          <mxGeometry x="0.2381" y="-2" relative="1" as="geometry">
            <mxPoint x="150" y="2" as="offset" />
          </mxGeometry>
        </mxCell>
        <mxCell id="ZZ1Go-hmm1u9_43SG65c-60" value="" style="endArrow=classic;html=1;fontColor=#46495D;sourcePerimeterSpacing=8;targetPerimeterSpacing=8;strokeColor=#788AA3;fillColor=#FFFFFF;entryX=0.971;entryY=0.432;entryDx=0;entryDy=0;entryPerimeter=0;exitX=1.029;exitY=0.611;exitDx=0;exitDy=0;exitPerimeter=0;" parent="U_qJlXAUU9-E40eDJ871-1" source="ZZ1Go-hmm1u9_43SG65c-0" target="ZZ1Go-hmm1u9_43SG65c-0" edge="1">
          <mxGeometry width="50" height="50" relative="1" as="geometry">
            <mxPoint x="148" y="245" as="sourcePoint" />
            <mxPoint x="198" y="195" as="targetPoint" />
            <Array as="points">
              <mxPoint x="120" y="247" />
              <mxPoint x="132" y="222" />
              <mxPoint x="132" y="213" />
              <mxPoint x="120" y="206" />
            </Array>
          </mxGeometry>
        </mxCell>
        <mxCell id="ZZ1Go-hmm1u9_43SG65c-61" value="重新登录" style="edgeLabel;html=1;align=center;verticalAlign=middle;resizable=0;points=[];fontColor=#46495D;" parent="ZZ1Go-hmm1u9_43SG65c-60" vertex="1" connectable="0">
          <mxGeometry x="-0.0687" relative="1" as="geometry">
            <mxPoint as="offset" />
          </mxGeometry>
        </mxCell>
        <mxCell id="ZZ1Go-hmm1u9_43SG65c-62" value="" style="endArrow=classic;html=1;startSize=14;endSize=14;sourcePerimeterSpacing=8;targetPerimeterSpacing=8;exitX=1.04;exitY=0.279;exitDx=0;exitDy=0;exitPerimeter=0;entryX=0;entryY=0.149;entryDx=0;entryDy=0;entryPerimeter=0;strokeColor=#788AA3;fontColor=#46495D;" parent="U_qJlXAUU9-E40eDJ871-1" target="ZZ1Go-hmm1u9_43SG65c-22" edge="1">
          <mxGeometry width="50" height="50" relative="1" as="geometry">
            <mxPoint x="521" y="136.00099999999998" as="sourcePoint" />
            <mxPoint x="704.5" y="136.07399999999996" as="targetPoint" />
          </mxGeometry>
        </mxCell>
        <mxCell id="ZZ1Go-hmm1u9_43SG65c-63" value="获取单点登录用户信息" style="edgeLabel;html=1;align=center;verticalAlign=middle;resizable=0;points=[];fontColor=#46495D;" parent="ZZ1Go-hmm1u9_43SG65c-62" vertex="1" connectable="0">
          <mxGeometry x="-0.1237" y="-1" relative="1" as="geometry">
            <mxPoint as="offset" />
          </mxGeometry>
        </mxCell>
        <mxCell id="ZZ1Go-hmm1u9_43SG65c-64" value="" style="endArrow=classic;html=1;startSize=14;endSize=14;sourcePerimeterSpacing=8;targetPerimeterSpacing=8;exitX=1.04;exitY=0.279;exitDx=0;exitDy=0;exitPerimeter=0;entryX=0.03;entryY=0.47;entryDx=0;entryDy=0;entryPerimeter=0;strokeColor=#788AA3;fontColor=#46495D;" parent="U_qJlXAUU9-E40eDJ871-1" target="ZZ1Go-hmm1u9_43SG65c-22" edge="1">
          <mxGeometry width="50" height="50" relative="1" as="geometry">
            <mxPoint x="521" y="209.00099999999998" as="sourcePoint" />
            <mxPoint x="704.5" y="209.07399999999996" as="targetPoint" />
          </mxGeometry>
        </mxCell>
        <mxCell id="ZZ1Go-hmm1u9_43SG65c-65" value="生成URL串添加指定菜单下" style="edgeLabel;html=1;align=center;verticalAlign=middle;resizable=0;points=[];fontColor=#46495D;" parent="ZZ1Go-hmm1u9_43SG65c-64" vertex="1" connectable="0">
          <mxGeometry x="-0.1237" y="-1" relative="1" as="geometry">
            <mxPoint as="offset" />
          </mxGeometry>
        </mxCell>
        <mxCell id="ZZ1Go-hmm1u9_43SG65c-67" value="" style="endArrow=classic;html=1;startSize=14;endSize=14;sourcePerimeterSpacing=8;targetPerimeterSpacing=8;exitX=1.04;exitY=0.279;exitDx=0;exitDy=0;exitPerimeter=0;strokeColor=#788AA3;fontColor=#46495D;" parent="U_qJlXAUU9-E40eDJ871-1" edge="1">
          <mxGeometry width="50" height="50" relative="1" as="geometry">
            <mxPoint x="740" y="209.00099999999998" as="sourcePoint" />
            <mxPoint x="923" y="210" as="targetPoint" />
          </mxGeometry>
        </mxCell>
        <mxCell id="ZZ1Go-hmm1u9_43SG65c-68" value="相同规则生成URL串&lt;br&gt;并和传递的参数对比" style="edgeLabel;html=1;align=center;verticalAlign=middle;resizable=0;points=[];fontColor=#46495D;" parent="ZZ1Go-hmm1u9_43SG65c-67" vertex="1" connectable="0">
          <mxGeometry x="-0.1237" y="-1" relative="1" as="geometry">
            <mxPoint as="offset" />
          </mxGeometry>
        </mxCell>
        <mxCell id="ZZ1Go-hmm1u9_43SG65c-69" value="" style="endArrow=classic;html=1;startSize=14;endSize=14;sourcePerimeterSpacing=8;targetPerimeterSpacing=8;exitX=1.04;exitY=0.279;exitDx=0;exitDy=0;exitPerimeter=0;strokeColor=#788AA3;fontColor=#46495D;" parent="U_qJlXAUU9-E40eDJ871-1" edge="1">
          <mxGeometry width="50" height="50" relative="1" as="geometry">
            <mxPoint x="740" y="251.00099999999998" as="sourcePoint" />
            <mxPoint x="923" y="252" as="targetPoint" />
          </mxGeometry>
        </mxCell>
        <mxCell id="ZZ1Go-hmm1u9_43SG65c-70" value="URL检验通过" style="edgeLabel;html=1;align=center;verticalAlign=middle;resizable=0;points=[];fontColor=#46495D;" parent="ZZ1Go-hmm1u9_43SG65c-69" vertex="1" connectable="0">
          <mxGeometry x="-0.1237" y="-1" relative="1" as="geometry">
            <mxPoint as="offset" />
          </mxGeometry>
        </mxCell>
        <mxCell id="ZZ1Go-hmm1u9_43SG65c-74" value="" style="endArrow=classic;html=1;sourcePerimeterSpacing=8;targetPerimeterSpacing=8;entryX=1.12;entryY=0.834;entryDx=0;entryDy=0;entryPerimeter=0;dashed=1;strokeColor=#788AA3;fontColor=#46495D;exitX=0;exitY=0.965;exitDx=0;exitDy=0;exitPerimeter=0;" parent="U_qJlXAUU9-E40eDJ871-1" source="ZZ1Go-hmm1u9_43SG65c-33" edge="1">
          <mxGeometry width="50" height="50" relative="1" as="geometry">
            <mxPoint x="276" y="323.01" as="sourcePoint" />
            <mxPoint x="86.99999999999989" y="322.996" as="targetPoint" />
            <Array as="points">
              <mxPoint x="241" y="323.01" />
            </Array>
          </mxGeometry>
        </mxCell>
        <mxCell id="ZZ1Go-hmm1u9_43SG65c-75" value="URL校验失败重新登录" style="edgeLabel;html=1;align=center;verticalAlign=middle;resizable=0;points=[];fontColor=#46495D;" parent="ZZ1Go-hmm1u9_43SG65c-74" vertex="1" connectable="0">
          <mxGeometry x="0.2381" y="-2" relative="1" as="geometry">
            <mxPoint x="426" y="1" as="offset" />
          </mxGeometry>
        </mxCell>
      </root>
    </mxGraphModel>
  </diagram>
  <diagram id="8NRtispJwv8Vup_Fcend" name="登录模块类图">
    <mxGraphModel dx="723" dy="375" grid="0" gridSize="10" guides="1" tooltips="1" connect="1" arrows="1" fold="1" page="1" pageScale="1" pageWidth="827" pageHeight="1169" math="0" shadow="0">
      <root>
        <mxCell id="qUi7cYhjJrreBEIF7Kj4-0" />
        <mxCell id="qUi7cYhjJrreBEIF7Kj4-1" parent="qUi7cYhjJrreBEIF7Kj4-0" />
        <mxCell id="qUi7cYhjJrreBEIF7Kj4-2" value=" MainController" style="swimlane;fontStyle=1;align=center;verticalAlign=top;childLayout=stackLayout;horizontal=1;startSize=26;horizontalStack=0;resizeParent=1;resizeParentMax=0;resizeLast=0;collapsible=1;marginBottom=0;hachureGap=4;pointerEvents=0;rounded=0;sketch=0;fontColor=#46495D;strokeColor=#788AA3;fillColor=#B2C9AB;" parent="qUi7cYhjJrreBEIF7Kj4-1" vertex="1">
          <mxGeometry x="121" y="67" width="160" height="166" as="geometry">
            <mxRectangle x="121" y="67" width="125" height="26" as="alternateBounds" />
          </mxGeometry>
        </mxCell>
        <mxCell id="qUi7cYhjJrreBEIF7Kj4-3" value="+ Kaptcha: kaptcha" style="text;strokeColor=none;fillColor=none;align=left;verticalAlign=top;spacingLeft=4;spacingRight=4;overflow=hidden;rotatable=0;points=[[0,0.5],[1,0.5]];portConstraint=eastwest;" parent="qUi7cYhjJrreBEIF7Kj4-2" vertex="1">
          <mxGeometry y="26" width="160" height="26" as="geometry" />
        </mxCell>
        <mxCell id="qUi7cYhjJrreBEIF7Kj4-4" value="" style="line;strokeWidth=1;fillColor=none;align=left;verticalAlign=middle;spacingTop=-1;spacingLeft=3;spacingRight=3;rotatable=0;labelPosition=right;points=[];portConstraint=eastwest;" parent="qUi7cYhjJrreBEIF7Kj4-2" vertex="1">
          <mxGeometry y="52" width="160" height="8" as="geometry" />
        </mxCell>
        <mxCell id="qUi7cYhjJrreBEIF7Kj4-5" value="+ login()  通用登录方法&#xa;" style="text;strokeColor=none;fillColor=none;align=left;verticalAlign=top;spacingLeft=4;spacingRight=4;overflow=hidden;rotatable=0;points=[[0,0.5],[1,0.5]];portConstraint=eastwest;" parent="qUi7cYhjJrreBEIF7Kj4-2" vertex="1">
          <mxGeometry y="60" width="160" height="26" as="geometry" />
        </mxCell>
        <mxCell id="qUi7cYhjJrreBEIF7Kj4-6" value="+ adminlogin() 管理员登录&#xa;" style="text;strokeColor=none;fillColor=none;align=left;verticalAlign=top;spacingLeft=4;spacingRight=4;overflow=hidden;rotatable=0;points=[[0,0.5],[1,0.5]];portConstraint=eastwest;" parent="qUi7cYhjJrreBEIF7Kj4-2" vertex="1">
          <mxGeometry y="86" width="160" height="26" as="geometry" />
        </mxCell>
        <mxCell id="qUi7cYhjJrreBEIF7Kj4-7" value="+ loginout()  登出方法" style="text;strokeColor=none;fillColor=none;align=left;verticalAlign=top;spacingLeft=4;spacingRight=4;overflow=hidden;rotatable=0;points=[[0,0.5],[1,0.5]];portConstraint=eastwest;" parent="qUi7cYhjJrreBEIF7Kj4-2" vertex="1">
          <mxGeometry y="112" width="160" height="27" as="geometry" />
        </mxCell>
        <mxCell id="qUi7cYhjJrreBEIF7Kj4-8" value="+ sso()  单点登录方法&#xa;" style="text;strokeColor=none;fillColor=none;align=left;verticalAlign=top;spacingLeft=4;spacingRight=4;overflow=hidden;rotatable=0;points=[[0,0.5],[1,0.5]];portConstraint=eastwest;" parent="qUi7cYhjJrreBEIF7Kj4-2" vertex="1">
          <mxGeometry y="139" width="160" height="27" as="geometry" />
        </mxCell>
        <mxCell id="FXY414vBuEQtl0JvV36Y-0" value=" InterpretListener1" style="swimlane;fontStyle=1;align=center;verticalAlign=top;childLayout=stackLayout;horizontal=1;startSize=26;horizontalStack=0;resizeParent=1;resizeParentMax=0;resizeLast=0;collapsible=1;marginBottom=0;hachureGap=4;pointerEvents=0;rounded=0;sketch=0;fontColor=#46495D;strokeColor=#788AA3;fillColor=#B2C9AB;" vertex="1" parent="qUi7cYhjJrreBEIF7Kj4-1">
          <mxGeometry x="427" y="67" width="173" height="139" as="geometry">
            <mxRectangle x="121" y="67" width="125" height="26" as="alternateBounds" />
          </mxGeometry>
        </mxCell>
        <mxCell id="FXY414vBuEQtl0JvV36Y-1" value="+" style="text;strokeColor=none;fillColor=none;align=left;verticalAlign=top;spacingLeft=4;spacingRight=4;overflow=hidden;rotatable=0;points=[[0,0.5],[1,0.5]];portConstraint=eastwest;" vertex="1" parent="FXY414vBuEQtl0JvV36Y-0">
          <mxGeometry y="26" width="173" height="26" as="geometry" />
        </mxCell>
        <mxCell id="FXY414vBuEQtl0JvV36Y-2" value="" style="line;strokeWidth=1;fillColor=none;align=left;verticalAlign=middle;spacingTop=-1;spacingLeft=3;spacingRight=3;rotatable=0;labelPosition=right;points=[];portConstraint=eastwest;" vertex="1" parent="FXY414vBuEQtl0JvV36Y-0">
          <mxGeometry y="52" width="173" height="8" as="geometry" />
        </mxCell>
        <mxCell id="FXY414vBuEQtl0JvV36Y-3" value="+ before() 拦截器处理前方法&#xa;" style="text;strokeColor=none;fillColor=none;align=left;verticalAlign=top;spacingLeft=4;spacingRight=4;overflow=hidden;rotatable=0;points=[[0,0.5],[1,0.5]];portConstraint=eastwest;" vertex="1" parent="FXY414vBuEQtl0JvV36Y-0">
          <mxGeometry y="60" width="173" height="26" as="geometry" />
        </mxCell>
        <mxCell id="FXY414vBuEQtl0JvV36Y-4" value="+ after() 拦截器处理后方法&#xa;" style="text;strokeColor=none;fillColor=none;align=left;verticalAlign=top;spacingLeft=4;spacingRight=4;overflow=hidden;rotatable=0;points=[[0,0.5],[1,0.5]];portConstraint=eastwest;" vertex="1" parent="FXY414vBuEQtl0JvV36Y-0">
          <mxGeometry y="86" width="173" height="26" as="geometry" />
        </mxCell>
        <mxCell id="FXY414vBuEQtl0JvV36Y-5" value="+ getToken() 获取Token方法" style="text;strokeColor=none;fillColor=none;align=left;verticalAlign=top;spacingLeft=4;spacingRight=4;overflow=hidden;rotatable=0;points=[[0,0.5],[1,0.5]];portConstraint=eastwest;" vertex="1" parent="FXY414vBuEQtl0JvV36Y-0">
          <mxGeometry y="112" width="173" height="27" as="geometry" />
        </mxCell>
        <mxCell id="FXY414vBuEQtl0JvV36Y-16" value="" style="edgeStyle=none;curved=1;rounded=0;orthogonalLoop=1;jettySize=auto;html=1;endArrow=open;startSize=14;endSize=14;sourcePerimeterSpacing=8;targetPerimeterSpacing=8;" edge="1" parent="qUi7cYhjJrreBEIF7Kj4-1" source="qUi7cYhjJrreBEIF7Kj4-5" target="FXY414vBuEQtl0JvV36Y-3">
          <mxGeometry relative="1" as="geometry" />
        </mxCell>
        <mxCell id="FXY414vBuEQtl0JvV36Y-28" value="发起登录请求" style="edgeLabel;html=1;align=center;verticalAlign=middle;resizable=0;points=[];" vertex="1" connectable="0" parent="FXY414vBuEQtl0JvV36Y-16">
          <mxGeometry x="-0.2393" relative="1" as="geometry">
            <mxPoint as="offset" />
          </mxGeometry>
        </mxCell>
        <mxCell id="FXY414vBuEQtl0JvV36Y-29" style="edgeStyle=none;curved=1;rounded=0;orthogonalLoop=1;jettySize=auto;html=1;exitX=0.25;exitY=0;exitDx=0;exitDy=0;endArrow=open;startSize=14;endSize=14;sourcePerimeterSpacing=8;targetPerimeterSpacing=8;entryX=0.25;entryY=1;entryDx=0;entryDy=0;" edge="1" parent="qUi7cYhjJrreBEIF7Kj4-1" source="FXY414vBuEQtl0JvV36Y-17" target="FXY414vBuEQtl0JvV36Y-0">
          <mxGeometry relative="1" as="geometry">
            <mxPoint x="478" y="208" as="targetPoint" />
            <Array as="points" />
          </mxGeometry>
        </mxCell>
        <mxCell id="FXY414vBuEQtl0JvV36Y-31" value="Text" style="edgeLabel;html=1;align=center;verticalAlign=middle;resizable=0;points=[];" vertex="1" connectable="0" parent="FXY414vBuEQtl0JvV36Y-29">
          <mxGeometry x="0.1398" y="2" relative="1" as="geometry">
            <mxPoint x="1" y="16" as="offset" />
          </mxGeometry>
        </mxCell>
        <mxCell id="FXY414vBuEQtl0JvV36Y-32" value="验证通过" style="edgeLabel;html=1;align=center;verticalAlign=middle;resizable=0;points=[];" vertex="1" connectable="0" parent="FXY414vBuEQtl0JvV36Y-29">
          <mxGeometry x="-0.3751" y="2" relative="1" as="geometry">
            <mxPoint y="-6" as="offset" />
          </mxGeometry>
        </mxCell>
        <mxCell id="FXY414vBuEQtl0JvV36Y-17" value="LoginCheck" style="swimlane;fontStyle=1;align=center;verticalAlign=top;childLayout=stackLayout;horizontal=1;startSize=26;horizontalStack=0;resizeParent=1;resizeParentMax=0;resizeLast=0;collapsible=1;marginBottom=0;hachureGap=4;pointerEvents=0;rounded=0;sketch=0;fontColor=#46495D;strokeColor=#788AA3;fillColor=#B2C9AB;" vertex="1" parent="qUi7cYhjJrreBEIF7Kj4-1">
          <mxGeometry x="433.5" y="280" width="160" height="112" as="geometry">
            <mxRectangle x="121" y="67" width="125" height="26" as="alternateBounds" />
          </mxGeometry>
        </mxCell>
        <mxCell id="FXY414vBuEQtl0JvV36Y-18" value="+ " style="text;strokeColor=none;fillColor=none;align=left;verticalAlign=top;spacingLeft=4;spacingRight=4;overflow=hidden;rotatable=0;points=[[0,0.5],[1,0.5]];portConstraint=eastwest;" vertex="1" parent="FXY414vBuEQtl0JvV36Y-17">
          <mxGeometry y="26" width="160" height="26" as="geometry" />
        </mxCell>
        <mxCell id="FXY414vBuEQtl0JvV36Y-19" value="" style="line;strokeWidth=1;fillColor=none;align=left;verticalAlign=middle;spacingTop=-1;spacingLeft=3;spacingRight=3;rotatable=0;labelPosition=right;points=[];portConstraint=eastwest;" vertex="1" parent="FXY414vBuEQtl0JvV36Y-17">
          <mxGeometry y="52" width="160" height="8" as="geometry" />
        </mxCell>
        <mxCell id="FXY414vBuEQtl0JvV36Y-20" value="+ checks()  校验登录信息&#xa;" style="text;strokeColor=none;fillColor=none;align=left;verticalAlign=top;spacingLeft=4;spacingRight=4;overflow=hidden;rotatable=0;points=[[0,0.5],[1,0.5]];portConstraint=eastwest;" vertex="1" parent="FXY414vBuEQtl0JvV36Y-17">
          <mxGeometry y="60" width="160" height="26" as="geometry" />
        </mxCell>
        <mxCell id="FXY414vBuEQtl0JvV36Y-21" value="+ getMD5() 获取加密信息&#xa;" style="text;strokeColor=none;fillColor=none;align=left;verticalAlign=top;spacingLeft=4;spacingRight=4;overflow=hidden;rotatable=0;points=[[0,0.5],[1,0.5]];portConstraint=eastwest;" vertex="1" parent="FXY414vBuEQtl0JvV36Y-17">
          <mxGeometry y="86" width="160" height="26" as="geometry" />
        </mxCell>
        <mxCell id="FXY414vBuEQtl0JvV36Y-27" value="" style="edgeStyle=none;curved=1;rounded=0;orthogonalLoop=1;jettySize=auto;html=1;endArrow=open;startSize=14;endSize=14;sourcePerimeterSpacing=8;targetPerimeterSpacing=8;exitX=0.491;exitY=1.079;exitDx=0;exitDy=0;exitPerimeter=0;entryX=0.5;entryY=0;entryDx=0;entryDy=0;" edge="1" parent="qUi7cYhjJrreBEIF7Kj4-1" source="FXY414vBuEQtl0JvV36Y-5" target="FXY414vBuEQtl0JvV36Y-17">
          <mxGeometry relative="1" as="geometry">
            <mxPoint x="299" y="150" as="sourcePoint" />
            <mxPoint x="376" y="150" as="targetPoint" />
          </mxGeometry>
        </mxCell>
        <mxCell id="FXY414vBuEQtl0JvV36Y-30" value="传递加密串" style="edgeLabel;html=1;align=center;verticalAlign=middle;resizable=0;points=[];" vertex="1" connectable="0" parent="FXY414vBuEQtl0JvV36Y-27">
          <mxGeometry x="-0.3577" y="-1" relative="1" as="geometry">
            <mxPoint as="offset" />
          </mxGeometry>
        </mxCell>
      </root>
    </mxGraphModel>
  </diagram>
  <diagram id="RYq2DmV6AdHpcUj-AmYN" name="工作事宜类图">
    <mxGraphModel dx="1927" dy="403" grid="0" gridSize="10" guides="1" tooltips="1" connect="1" arrows="1" fold="1" page="1" pageScale="1" pageWidth="827" pageHeight="1169" math="0" shadow="0">
      <root>
        <mxCell id="ubR_qze1EGiwZ3SoVdCx-0" />
        <mxCell id="ubR_qze1EGiwZ3SoVdCx-1" parent="ubR_qze1EGiwZ3SoVdCx-0" />
        <mxCell id="QK6rf6QNCkXs5GJLJsGO-0" value=" StartupProService" style="swimlane;fontStyle=1;align=center;verticalAlign=top;childLayout=stackLayout;horizontal=1;startSize=26;horizontalStack=0;resizeParent=1;resizeParentMax=0;resizeLast=0;collapsible=1;marginBottom=0;hachureGap=4;pointerEvents=0;rounded=0;sketch=0;fontColor=#46495D;strokeColor=#788AA3;fillColor=#B2C9AB;" vertex="1" parent="ubR_qze1EGiwZ3SoVdCx-1">
          <mxGeometry x="121" y="67" width="217" height="112" as="geometry">
            <mxRectangle x="121" y="67" width="125" height="26" as="alternateBounds" />
          </mxGeometry>
        </mxCell>
        <mxCell id="QK6rf6QNCkXs5GJLJsGO-1" value="+ " style="text;strokeColor=none;fillColor=none;align=left;verticalAlign=top;spacingLeft=4;spacingRight=4;overflow=hidden;rotatable=0;points=[[0,0.5],[1,0.5]];portConstraint=eastwest;" vertex="1" parent="QK6rf6QNCkXs5GJLJsGO-0">
          <mxGeometry y="26" width="217" height="26" as="geometry" />
        </mxCell>
        <mxCell id="QK6rf6QNCkXs5GJLJsGO-2" value="" style="line;strokeWidth=1;fillColor=none;align=left;verticalAlign=middle;spacingTop=-1;spacingLeft=3;spacingRight=3;rotatable=0;labelPosition=right;points=[];portConstraint=eastwest;" vertex="1" parent="QK6rf6QNCkXs5GJLJsGO-0">
          <mxGeometry y="52" width="217" height="8" as="geometry" />
        </mxCell>
        <mxCell id="QK6rf6QNCkXs5GJLJsGO-3" value="+ submitPro()  发起流程方法&#xa;" style="text;strokeColor=none;fillColor=none;align=left;verticalAlign=top;spacingLeft=4;spacingRight=4;overflow=hidden;rotatable=0;points=[[0,0.5],[1,0.5]];portConstraint=eastwest;" vertex="1" parent="QK6rf6QNCkXs5GJLJsGO-0">
          <mxGeometry y="60" width="217" height="26" as="geometry" />
        </mxCell>
        <mxCell id="QK6rf6QNCkXs5GJLJsGO-4" value="+ submitRoleUser() 流程角色保存方法&#xa;" style="text;strokeColor=none;fillColor=none;align=left;verticalAlign=top;spacingLeft=4;spacingRight=4;overflow=hidden;rotatable=0;points=[[0,0.5],[1,0.5]];portConstraint=eastwest;" vertex="1" parent="QK6rf6QNCkXs5GJLJsGO-0">
          <mxGeometry y="86" width="217" height="26" as="geometry" />
        </mxCell>
        <mxCell id="QK6rf6QNCkXs5GJLJsGO-7" value="RuntimeService" style="swimlane;fontStyle=1;align=center;verticalAlign=top;childLayout=stackLayout;horizontal=1;startSize=26;horizontalStack=0;resizeParent=1;resizeParentMax=0;resizeLast=0;collapsible=1;marginBottom=0;hachureGap=4;pointerEvents=0;rounded=0;sketch=0;fontColor=#46495D;strokeColor=#788AA3;fillColor=#B2C9AB;" vertex="1" parent="ubR_qze1EGiwZ3SoVdCx-1">
          <mxGeometry x="489" y="67" width="347" height="301" as="geometry">
            <mxRectangle x="121" y="67" width="125" height="26" as="alternateBounds" />
          </mxGeometry>
        </mxCell>
        <mxCell id="QK6rf6QNCkXs5GJLJsGO-8" value="+" style="text;strokeColor=none;fillColor=none;align=left;verticalAlign=top;spacingLeft=4;spacingRight=4;overflow=hidden;rotatable=0;points=[[0,0.5],[1,0.5]];portConstraint=eastwest;" vertex="1" parent="QK6rf6QNCkXs5GJLJsGO-7">
          <mxGeometry y="26" width="347" height="26" as="geometry" />
        </mxCell>
        <mxCell id="QK6rf6QNCkXs5GJLJsGO-9" value="" style="line;strokeWidth=1;fillColor=none;align=left;verticalAlign=middle;spacingTop=-1;spacingLeft=3;spacingRight=3;rotatable=0;labelPosition=right;points=[];portConstraint=eastwest;" vertex="1" parent="QK6rf6QNCkXs5GJLJsGO-7">
          <mxGeometry y="52" width="347" height="8" as="geometry" />
        </mxCell>
        <mxCell id="QK6rf6QNCkXs5GJLJsGO-10" value="+ getRuntimeService()   获取运行时服务&#xa;" style="text;strokeColor=none;fillColor=none;align=left;verticalAlign=top;spacingLeft=4;spacingRight=4;overflow=hidden;rotatable=0;points=[[0,0.5],[1,0.5]];portConstraint=eastwest;" vertex="1" parent="QK6rf6QNCkXs5GJLJsGO-7">
          <mxGeometry y="60" width="347" height="26" as="geometry" />
        </mxCell>
        <mxCell id="QK6rf6QNCkXs5GJLJsGO-11" value="+ getRuntimeService(Map map)  获取运行时服务&#xa;" style="text;strokeColor=none;fillColor=none;align=left;verticalAlign=top;spacingLeft=4;spacingRight=4;overflow=hidden;rotatable=0;points=[[0,0.5],[1,0.5]];portConstraint=eastwest;" vertex="1" parent="QK6rf6QNCkXs5GJLJsGO-7">
          <mxGeometry y="86" width="347" height="26" as="geometry" />
        </mxCell>
        <mxCell id="QK6rf6QNCkXs5GJLJsGO-12" value="+ RuntimeService(HttpServletRequest request) 获取服务" style="text;strokeColor=none;fillColor=none;align=left;verticalAlign=top;spacingLeft=4;spacingRight=4;overflow=hidden;rotatable=0;points=[[0,0.5],[1,0.5]];portConstraint=eastwest;" vertex="1" parent="QK6rf6QNCkXs5GJLJsGO-7">
          <mxGeometry y="112" width="347" height="27" as="geometry" />
        </mxCell>
        <mxCell id="QK6rf6QNCkXs5GJLJsGO-26" value="+ getRuntimeContext()  获取上下文" style="text;strokeColor=none;fillColor=none;align=left;verticalAlign=top;spacingLeft=4;spacingRight=4;overflow=hidden;rotatable=0;points=[[0,0.5],[1,0.5]];portConstraint=eastwest;" vertex="1" parent="QK6rf6QNCkXs5GJLJsGO-7">
          <mxGeometry y="139" width="347" height="27" as="geometry" />
        </mxCell>
        <mxCell id="QK6rf6QNCkXs5GJLJsGO-27" value="+ getActivityService()  获取活动服务 " style="text;strokeColor=none;fillColor=none;align=left;verticalAlign=top;spacingLeft=4;spacingRight=4;overflow=hidden;rotatable=0;points=[[0,0.5],[1,0.5]];portConstraint=eastwest;" vertex="1" parent="QK6rf6QNCkXs5GJLJsGO-7">
          <mxGeometry y="166" width="347" height="27" as="geometry" />
        </mxCell>
        <mxCell id="QK6rf6QNCkXs5GJLJsGO-28" value="+ getTaskService()  获取任务服务" style="text;strokeColor=none;fillColor=none;align=left;verticalAlign=top;spacingLeft=4;spacingRight=4;overflow=hidden;rotatable=0;points=[[0,0.5],[1,0.5]];portConstraint=eastwest;" vertex="1" parent="QK6rf6QNCkXs5GJLJsGO-7">
          <mxGeometry y="193" width="347" height="27" as="geometry" />
        </mxCell>
        <mxCell id="QK6rf6QNCkXs5GJLJsGO-29" value="+ getProcessService()  获取流程服务" style="text;strokeColor=none;fillColor=none;align=left;verticalAlign=top;spacingLeft=4;spacingRight=4;overflow=hidden;rotatable=0;points=[[0,0.5],[1,0.5]];portConstraint=eastwest;" vertex="1" parent="QK6rf6QNCkXs5GJLJsGO-7">
          <mxGeometry y="220" width="347" height="27" as="geometry" />
        </mxCell>
        <mxCell id="QK6rf6QNCkXs5GJLJsGO-30" value="+ getProcessInstanceIdByActivityInstanceId() 获取流程实例" style="text;strokeColor=none;fillColor=none;align=left;verticalAlign=top;spacingLeft=4;spacingRight=4;overflow=hidden;rotatable=0;points=[[0,0.5],[1,0.5]];portConstraint=eastwest;" vertex="1" parent="QK6rf6QNCkXs5GJLJsGO-7">
          <mxGeometry y="247" width="347" height="27" as="geometry" />
        </mxCell>
        <mxCell id="QK6rf6QNCkXs5GJLJsGO-31" value="+ getProcessInstanceIdByTaskId(String taskId)  获取流程实例ID" style="text;strokeColor=none;fillColor=none;align=left;verticalAlign=top;spacingLeft=4;spacingRight=4;overflow=hidden;rotatable=0;points=[[0,0.5],[1,0.5]];portConstraint=eastwest;" vertex="1" parent="QK6rf6QNCkXs5GJLJsGO-7">
          <mxGeometry y="274" width="347" height="27" as="geometry" />
        </mxCell>
        <mxCell id="QK6rf6QNCkXs5GJLJsGO-13" value="" style="edgeStyle=none;curved=1;rounded=0;orthogonalLoop=1;jettySize=auto;html=1;endArrow=open;startSize=14;endSize=14;sourcePerimeterSpacing=8;targetPerimeterSpacing=8;" edge="1" parent="ubR_qze1EGiwZ3SoVdCx-1" source="QK6rf6QNCkXs5GJLJsGO-3" target="QK6rf6QNCkXs5GJLJsGO-10">
          <mxGeometry relative="1" as="geometry" />
        </mxCell>
        <mxCell id="QK6rf6QNCkXs5GJLJsGO-14" value="获取运行时服务" style="edgeLabel;html=1;align=center;verticalAlign=middle;resizable=0;points=[];" vertex="1" connectable="0" parent="QK6rf6QNCkXs5GJLJsGO-13">
          <mxGeometry x="-0.2393" relative="1" as="geometry">
            <mxPoint as="offset" />
          </mxGeometry>
        </mxCell>
        <mxCell id="QK6rf6QNCkXs5GJLJsGO-32" value="ActivityService" style="swimlane;fontStyle=1;align=center;verticalAlign=top;childLayout=stackLayout;horizontal=1;startSize=26;horizontalStack=0;resizeParent=1;resizeParentMax=0;resizeLast=0;collapsible=1;marginBottom=0;hachureGap=4;pointerEvents=0;rounded=0;sketch=0;fontColor=#46495D;strokeColor=#788AA3;fillColor=#B2C9AB;" vertex="1" parent="ubR_qze1EGiwZ3SoVdCx-1">
          <mxGeometry x="65" y="472" width="281" height="294" as="geometry">
            <mxRectangle x="121" y="67" width="125" height="26" as="alternateBounds" />
          </mxGeometry>
        </mxCell>
        <mxCell id="QK6rf6QNCkXs5GJLJsGO-33" value="+ Logger logger" style="text;strokeColor=none;fillColor=none;align=left;verticalAlign=top;spacingLeft=4;spacingRight=4;overflow=hidden;rotatable=0;points=[[0,0.5],[1,0.5]];portConstraint=eastwest;" vertex="1" parent="QK6rf6QNCkXs5GJLJsGO-32">
          <mxGeometry y="26" width="281" height="26" as="geometry" />
        </mxCell>
        <mxCell id="QK6rf6QNCkXs5GJLJsGO-34" value="" style="line;strokeWidth=1;fillColor=none;align=left;verticalAlign=middle;spacingTop=-1;spacingLeft=3;spacingRight=3;rotatable=0;labelPosition=right;points=[];portConstraint=eastwest;" vertex="1" parent="QK6rf6QNCkXs5GJLJsGO-32">
          <mxGeometry y="52" width="281" height="8" as="geometry" />
        </mxCell>
        <mxCell id="QK6rf6QNCkXs5GJLJsGO-35" value="+ withdraw(String activity_inst_id) 撤回方法&#xa;" style="text;strokeColor=none;fillColor=none;align=left;verticalAlign=top;spacingLeft=4;spacingRight=4;overflow=hidden;rotatable=0;points=[[0,0.5],[1,0.5]];portConstraint=eastwest;" vertex="1" parent="QK6rf6QNCkXs5GJLJsGO-32">
          <mxGeometry y="60" width="281" height="26" as="geometry" />
        </mxCell>
        <mxCell id="QK6rf6QNCkXs5GJLJsGO-36" value="+ isBranchCompleted() 流程分支完成方法&#xa;" style="text;strokeColor=none;fillColor=none;align=left;verticalAlign=top;spacingLeft=4;spacingRight=4;overflow=hidden;rotatable=0;points=[[0,0.5],[1,0.5]];portConstraint=eastwest;" vertex="1" parent="QK6rf6QNCkXs5GJLJsGO-32">
          <mxGeometry y="86" width="281" height="26" as="geometry" />
        </mxCell>
        <mxCell id="QK6rf6QNCkXs5GJLJsGO-37" value="+ joined() 汇聚节点方法" style="text;strokeColor=none;fillColor=none;align=left;verticalAlign=top;spacingLeft=4;spacingRight=4;overflow=hidden;rotatable=0;points=[[0,0.5],[1,0.5]];portConstraint=eastwest;" vertex="1" parent="QK6rf6QNCkXs5GJLJsGO-32">
          <mxGeometry y="112" width="281" height="26" as="geometry" />
        </mxCell>
        <mxCell id="QK6rf6QNCkXs5GJLJsGO-38" value="+ tobeReaded() 待阅方法" style="text;strokeColor=none;fillColor=none;align=left;verticalAlign=top;spacingLeft=4;spacingRight=4;overflow=hidden;rotatable=0;points=[[0,0.5],[1,0.5]];portConstraint=eastwest;" vertex="1" parent="QK6rf6QNCkXs5GJLJsGO-32">
          <mxGeometry y="138" width="281" height="26" as="geometry" />
        </mxCell>
        <mxCell id="QK6rf6QNCkXs5GJLJsGO-39" value="+ start() 开始方法" style="text;strokeColor=none;fillColor=none;align=left;verticalAlign=top;spacingLeft=4;spacingRight=4;overflow=hidden;rotatable=0;points=[[0,0.5],[1,0.5]];portConstraint=eastwest;" vertex="1" parent="QK6rf6QNCkXs5GJLJsGO-32">
          <mxGeometry y="164" width="281" height="26" as="geometry" />
        </mxCell>
        <mxCell id="QK6rf6QNCkXs5GJLJsGO-40" value="+ taskEnded() 任务结束方法" style="text;strokeColor=none;fillColor=none;align=left;verticalAlign=top;spacingLeft=4;spacingRight=4;overflow=hidden;rotatable=0;points=[[0,0.5],[1,0.5]];portConstraint=eastwest;" vertex="1" parent="QK6rf6QNCkXs5GJLJsGO-32">
          <mxGeometry y="190" width="281" height="26" as="geometry" />
        </mxCell>
        <mxCell id="QK6rf6QNCkXs5GJLJsGO-41" value="+ end() 流程结束方法" style="text;strokeColor=none;fillColor=none;align=left;verticalAlign=top;spacingLeft=4;spacingRight=4;overflow=hidden;rotatable=0;points=[[0,0.5],[1,0.5]];portConstraint=eastwest;" vertex="1" parent="QK6rf6QNCkXs5GJLJsGO-32">
          <mxGeometry y="216" width="281" height="26" as="geometry" />
        </mxCell>
        <mxCell id="QK6rf6QNCkXs5GJLJsGO-42" value="+ end(String activity_inst_id) 实例结束方法" style="text;strokeColor=none;fillColor=none;align=left;verticalAlign=top;spacingLeft=4;spacingRight=4;overflow=hidden;rotatable=0;points=[[0,0.5],[1,0.5]];portConstraint=eastwest;" vertex="1" parent="QK6rf6QNCkXs5GJLJsGO-32">
          <mxGeometry y="242" width="281" height="26" as="geometry" />
        </mxCell>
        <mxCell id="QK6rf6QNCkXs5GJLJsGO-43" value="+ end(String activity_inst_id,Map vars) 结束方法" style="text;strokeColor=none;fillColor=none;align=left;verticalAlign=top;spacingLeft=4;spacingRight=4;overflow=hidden;rotatable=0;points=[[0,0.5],[1,0.5]];portConstraint=eastwest;" vertex="1" parent="QK6rf6QNCkXs5GJLJsGO-32">
          <mxGeometry y="268" width="281" height="26" as="geometry" />
        </mxCell>
        <mxCell id="QK6rf6QNCkXs5GJLJsGO-44" value="TaskService" style="swimlane;fontStyle=1;align=center;verticalAlign=top;childLayout=stackLayout;horizontal=1;startSize=26;horizontalStack=0;resizeParent=1;resizeParentMax=0;resizeLast=0;collapsible=1;marginBottom=0;hachureGap=4;pointerEvents=0;rounded=0;sketch=0;fontColor=#46495D;strokeColor=#788AA3;fillColor=#B2C9AB;" vertex="1" parent="ubR_qze1EGiwZ3SoVdCx-1">
          <mxGeometry x="489" y="469" width="319" height="138" as="geometry">
            <mxRectangle x="121" y="67" width="125" height="26" as="alternateBounds" />
          </mxGeometry>
        </mxCell>
        <mxCell id="QK6rf6QNCkXs5GJLJsGO-45" value="+ TaskService taskService" style="text;strokeColor=none;fillColor=none;align=left;verticalAlign=top;spacingLeft=4;spacingRight=4;overflow=hidden;rotatable=0;points=[[0,0.5],[1,0.5]];portConstraint=eastwest;" vertex="1" parent="QK6rf6QNCkXs5GJLJsGO-44">
          <mxGeometry y="26" width="319" height="26" as="geometry" />
        </mxCell>
        <mxCell id="QK6rf6QNCkXs5GJLJsGO-46" value="" style="line;strokeWidth=1;fillColor=none;align=left;verticalAlign=middle;spacingTop=-1;spacingLeft=3;spacingRight=3;rotatable=0;labelPosition=right;points=[];portConstraint=eastwest;" vertex="1" parent="QK6rf6QNCkXs5GJLJsGO-44">
          <mxGeometry y="52" width="319" height="8" as="geometry" />
        </mxCell>
        <mxCell id="QK6rf6QNCkXs5GJLJsGO-47" value="+ returned(String taskId,String actorId) 退回方法&#xa;" style="text;strokeColor=none;fillColor=none;align=left;verticalAlign=top;spacingLeft=4;spacingRight=4;overflow=hidden;rotatable=0;points=[[0,0.5],[1,0.5]];portConstraint=eastwest;" vertex="1" parent="QK6rf6QNCkXs5GJLJsGO-44">
          <mxGeometry y="60" width="319" height="26" as="geometry" />
        </mxCell>
        <mxCell id="QK6rf6QNCkXs5GJLJsGO-48" value="+ create(String activity_inst_id,String userId) 创建任务方法&#xa;" style="text;strokeColor=none;fillColor=none;align=left;verticalAlign=top;spacingLeft=4;spacingRight=4;overflow=hidden;rotatable=0;points=[[0,0.5],[1,0.5]];portConstraint=eastwest;" vertex="1" parent="QK6rf6QNCkXs5GJLJsGO-44">
          <mxGeometry y="86" width="319" height="26" as="geometry" />
        </mxCell>
        <mxCell id="QK6rf6QNCkXs5GJLJsGO-49" value="+ complete(String taskId,String actorId) 完成任务方法" style="text;strokeColor=none;fillColor=none;align=left;verticalAlign=top;spacingLeft=4;spacingRight=4;overflow=hidden;rotatable=0;points=[[0,0.5],[1,0.5]];portConstraint=eastwest;" vertex="1" parent="QK6rf6QNCkXs5GJLJsGO-44">
          <mxGeometry y="112" width="319" height="26" as="geometry" />
        </mxCell>
        <mxCell id="QK6rf6QNCkXs5GJLJsGO-76" value="" style="edgeStyle=none;curved=1;rounded=0;orthogonalLoop=1;jettySize=auto;html=1;endArrow=open;startSize=14;endSize=14;sourcePerimeterSpacing=8;targetPerimeterSpacing=8;exitX=0.514;exitY=1.016;exitDx=0;exitDy=0;exitPerimeter=0;" edge="1" parent="ubR_qze1EGiwZ3SoVdCx-1" source="QK6rf6QNCkXs5GJLJsGO-69">
          <mxGeometry relative="1" as="geometry">
            <mxPoint x="198" y="474" as="targetPoint" />
          </mxGeometry>
        </mxCell>
        <mxCell id="QK6rf6QNCkXs5GJLJsGO-77" value="创建活动" style="edgeLabel;html=1;align=center;verticalAlign=middle;resizable=0;points=[];" vertex="1" connectable="0" parent="QK6rf6QNCkXs5GJLJsGO-76">
          <mxGeometry x="-0.2384" relative="1" as="geometry">
            <mxPoint as="offset" />
          </mxGeometry>
        </mxCell>
        <mxCell id="QK6rf6QNCkXs5GJLJsGO-61" value="ProcessService" style="swimlane;fontStyle=1;align=center;verticalAlign=top;childLayout=stackLayout;horizontal=1;startSize=26;horizontalStack=0;resizeParent=1;resizeParentMax=0;resizeLast=0;collapsible=1;marginBottom=0;hachureGap=4;pointerEvents=0;rounded=0;sketch=0;fontColor=#46495D;strokeColor=#788AA3;fillColor=#B2C9AB;" vertex="1" parent="ubR_qze1EGiwZ3SoVdCx-1">
          <mxGeometry x="-2" y="202" width="392" height="216" as="geometry">
            <mxRectangle x="121" y="67" width="125" height="26" as="alternateBounds" />
          </mxGeometry>
        </mxCell>
        <mxCell id="QK6rf6QNCkXs5GJLJsGO-62" value="+ Logger logger" style="text;strokeColor=none;fillColor=none;align=left;verticalAlign=top;spacingLeft=4;spacingRight=4;overflow=hidden;rotatable=0;points=[[0,0.5],[1,0.5]];portConstraint=eastwest;" vertex="1" parent="QK6rf6QNCkXs5GJLJsGO-61">
          <mxGeometry y="26" width="392" height="26" as="geometry" />
        </mxCell>
        <mxCell id="QK6rf6QNCkXs5GJLJsGO-63" value="" style="line;strokeWidth=1;fillColor=none;align=left;verticalAlign=middle;spacingTop=-1;spacingLeft=3;spacingRight=3;rotatable=0;labelPosition=right;points=[];portConstraint=eastwest;" vertex="1" parent="QK6rf6QNCkXs5GJLJsGO-61">
          <mxGeometry y="52" width="392" height="8" as="geometry" />
        </mxCell>
        <mxCell id="QK6rf6QNCkXs5GJLJsGO-64" value="+ changeStatus(String proc_inst_id,int status,String user)改变状态方法&#xa;" style="text;strokeColor=none;fillColor=none;align=left;verticalAlign=top;spacingLeft=4;spacingRight=4;overflow=hidden;rotatable=0;points=[[0,0.5],[1,0.5]];portConstraint=eastwest;" vertex="1" parent="QK6rf6QNCkXs5GJLJsGO-61">
          <mxGeometry y="60" width="392" height="26" as="geometry" />
        </mxCell>
        <mxCell id="QK6rf6QNCkXs5GJLJsGO-65" value="+  end() 流程结束方法&#xa;" style="text;strokeColor=none;fillColor=none;align=left;verticalAlign=top;spacingLeft=4;spacingRight=4;overflow=hidden;rotatable=0;points=[[0,0.5],[1,0.5]];portConstraint=eastwest;" vertex="1" parent="QK6rf6QNCkXs5GJLJsGO-61">
          <mxGeometry y="86" width="392" height="26" as="geometry" />
        </mxCell>
        <mxCell id="QK6rf6QNCkXs5GJLJsGO-66" value="+activieyEnded() 结束活动方法" style="text;strokeColor=none;fillColor=none;align=left;verticalAlign=top;spacingLeft=4;spacingRight=4;overflow=hidden;rotatable=0;points=[[0,0.5],[1,0.5]];portConstraint=eastwest;" vertex="1" parent="QK6rf6QNCkXs5GJLJsGO-61">
          <mxGeometry y="112" width="392" height="26" as="geometry" />
        </mxCell>
        <mxCell id="QK6rf6QNCkXs5GJLJsGO-67" value="+ start() 发起流程方法" style="text;strokeColor=none;fillColor=none;align=left;verticalAlign=top;spacingLeft=4;spacingRight=4;overflow=hidden;rotatable=0;points=[[0,0.5],[1,0.5]];portConstraint=eastwest;" vertex="1" parent="QK6rf6QNCkXs5GJLJsGO-61">
          <mxGeometry y="138" width="392" height="26" as="geometry" />
        </mxCell>
        <mxCell id="QK6rf6QNCkXs5GJLJsGO-68" value="+  _copy_process(String proc_code) 复制流程方法" style="text;strokeColor=none;fillColor=none;align=left;verticalAlign=top;spacingLeft=4;spacingRight=4;overflow=hidden;rotatable=0;points=[[0,0.5],[1,0.5]];portConstraint=eastwest;" vertex="1" parent="QK6rf6QNCkXs5GJLJsGO-61">
          <mxGeometry y="164" width="392" height="26" as="geometry" />
        </mxCell>
        <mxCell id="QK6rf6QNCkXs5GJLJsGO-69" value="+ invokeListener(String inst_id,String type,String event) 获取监听方法" style="text;strokeColor=none;fillColor=none;align=left;verticalAlign=top;spacingLeft=4;spacingRight=4;overflow=hidden;rotatable=0;points=[[0,0.5],[1,0.5]];portConstraint=eastwest;" vertex="1" parent="QK6rf6QNCkXs5GJLJsGO-61">
          <mxGeometry y="190" width="392" height="26" as="geometry" />
        </mxCell>
        <mxCell id="QK6rf6QNCkXs5GJLJsGO-74" style="edgeStyle=none;curved=1;rounded=0;orthogonalLoop=1;jettySize=auto;html=1;exitX=0;exitY=0.5;exitDx=0;exitDy=0;endArrow=open;startSize=14;endSize=14;sourcePerimeterSpacing=8;targetPerimeterSpacing=8;entryX=1;entryY=0.5;entryDx=0;entryDy=0;" edge="1" parent="ubR_qze1EGiwZ3SoVdCx-1" source="QK6rf6QNCkXs5GJLJsGO-29" target="QK6rf6QNCkXs5GJLJsGO-65">
          <mxGeometry relative="1" as="geometry">
            <mxPoint x="415.8333333333335" y="300.83333333333337" as="targetPoint" />
          </mxGeometry>
        </mxCell>
        <mxCell id="QK6rf6QNCkXs5GJLJsGO-75" value="发起流程" style="edgeLabel;html=1;align=center;verticalAlign=middle;resizable=0;points=[];" vertex="1" connectable="0" parent="QK6rf6QNCkXs5GJLJsGO-74">
          <mxGeometry x="0.1785" y="1" relative="1" as="geometry">
            <mxPoint as="offset" />
          </mxGeometry>
        </mxCell>
        <mxCell id="QK6rf6QNCkXs5GJLJsGO-78" style="edgeStyle=none;curved=1;rounded=0;orthogonalLoop=1;jettySize=auto;html=1;exitX=1;exitY=0.5;exitDx=0;exitDy=0;entryX=0;entryY=0.5;entryDx=0;entryDy=0;endArrow=open;startSize=14;endSize=14;sourcePerimeterSpacing=8;targetPerimeterSpacing=8;" edge="1" parent="ubR_qze1EGiwZ3SoVdCx-1" source="QK6rf6QNCkXs5GJLJsGO-36" target="QK6rf6QNCkXs5GJLJsGO-48">
          <mxGeometry relative="1" as="geometry" />
        </mxCell>
        <mxCell id="QK6rf6QNCkXs5GJLJsGO-79" value="创建任务" style="edgeLabel;html=1;align=center;verticalAlign=middle;resizable=0;points=[];" vertex="1" connectable="0" parent="QK6rf6QNCkXs5GJLJsGO-78">
          <mxGeometry x="-0.102" y="-2" relative="1" as="geometry">
            <mxPoint as="offset" />
          </mxGeometry>
        </mxCell>
      </root>
    </mxGraphModel>
  </diagram>
</mxfile>
